<?xml version="1.0" encoding="UTF-8" standalone="no"?>
<!-- Created with Inkscape (http://www.inkscape.org/) -->

<svg
   xmlns:dc="http://purl.org/dc/elements/1.1/"
   xmlns:cc="http://creativecommons.org/ns#"
   xmlns:rdf="http://www.w3.org/1999/02/22-rdf-syntax-ns#"
   xmlns:svg="http://www.w3.org/2000/svg"
   xmlns="http://www.w3.org/2000/svg"
   xmlns:sodipodi="http://sodipodi.sourceforge.net/DTD/sodipodi-0.dtd"
   xmlns:inkscape="http://www.inkscape.org/namespaces/inkscape"
   version="1.1"
   width="1052.3622"
   height="744.09448"
   id="svg2"
   inkscape:version="0.91 r13725"
   sodipodi:docname="owlfooding.svg"
   inkscape:export-filename="/home/luis/repos/bitergia/website/logo/logo-test.png"
   inkscape:export-xdpi="78.965027"
   inkscape:export-ydpi="78.965027">
  <metadata
     id="metadata3073">
    <rdf:RDF>
      <cc:Work
         rdf:about="">
        <dc:format>image/svg+xml</dc:format>
        <dc:type
           rdf:resource="http://purl.org/dc/dcmitype/StillImage" />
        <dc:title></dc:title>
      </cc:Work>
    </rdf:RDF>
  </metadata>
  <sodipodi:namedview
     pagecolor="#ffffff"
     bordercolor="#666666"
     borderopacity="1"
     objecttolerance="10"
     gridtolerance="10"
     guidetolerance="10"
     inkscape:pageopacity="0"
     inkscape:pageshadow="2"
     inkscape:window-width="1920"
     inkscape:window-height="1016"
     id="namedview3071"
     showgrid="true"
     inkscape:zoom="0.82"
     inkscape:cx="406.59561"
     inkscape:cy="332.81092"
     inkscape:window-x="0"
     inkscape:window-y="27"
     inkscape:window-maximized="1"
     inkscape:current-layer="svg2"
     inkscape:snap-grids="true">
    <inkscape:grid
       type="xygrid"
       id="grid3075" />
  </sodipodi:namedview>
  <defs
     id="defs4" />
  <rect
     style="opacity:1;fill:#ffffff;fill-opacity:1;stroke:#000000;stroke-width:4.64099979;stroke-linecap:butt;stroke-miterlimit:4;stroke-dasharray:none;stroke-opacity:1"
     id="rect4160"
     width="1076.3761"
     height="202.44286"
     x="-24.036375"
     y="479.04517"
     ry="67.480949" />
  <path
     inkscape:connector-curvature="0"
     d="m 359.4794,415.54957 c 2.39477,-0.74402 4.83599,-1.76334 7.36343,-1.39504 2.54404,0.0633 4.90233,1.8675 6.18596,4.27814 0.63684,1.13092 0.42124,2.49994 0.20564,3.73502 1.40636,0.85563 3.35998,0.93747 3.97029,2.90542 -1.24382,0.24553 -2.52745,0.17485 -3.74142,0.5729 -1.39309,0.36085 -1.36323,2.32136 -2.05645,3.44856 2.28531,1.74102 4.76632,3.30348 6.44466,5.84061 1.7314,1.71125 4.31855,2.68593 5.15109,5.33095 0.38475,2.20231 1.19407,4.27442 1.54235,6.4879 0.52738,2.49621 0.93867,5.02962 1.65841,7.47002 0.19571,0.65103 0.14927,1.34669 0.16253,2.02376 -0.18574,2.96122 1.34997,5.58763 1.35661,8.53398 -0.29188,0.35713 -0.58377,0.71054 -0.86903,1.06768 0.30184,3.79081 0.57382,7.58162 0.62689,11.39104 3.06811,0.27901 6.14285,-0.11161 9.21758,0.0372 2.09957,-0.0186 4.19251,0.56547 6.29209,0.18602 3.74473,-0.56546 7.50276,0.64358 11.24085,0.0149 3.88405,-0.50594 7.77805,0.55802 11.66209,0 3.98687,-0.50222 7.96049,0.51709 11.94736,0.16368 3.47275,-0.24552 6.94883,0.26413 10.41496,-0.13393 2.60372,-0.0335 5.20747,0.20833 7.81453,0.19345 1.77452,0.007 3.52582,-0.46501 5.30697,-0.30877 2.2024,0.16741 4.42139,0.34969 6.62379,0.0335 2.6369,-0.38689 5.29703,-0.093 7.9472,-0.0744 2.66675,0.0223 5.33352,-0.42782 8.00359,-0.20089 3.84757,0.33853 7.68187,-0.40921 11.53606,-0.21204 -0.69653,-1.51409 -1.43288,-3.03563 -1.58546,-4.76177 -0.0497,-1.25741 -1.12109,-2.05352 -1.19407,-3.29232 -0.13599,-1.276 -0.23218,-2.58177 -0.76951,-3.73873 0.19569,-1.75962 0.17579,-3.66805 -0.8458,-5.12634 0.15921,-2.26556 0.2952,-4.53484 0.36817,-6.80412 0.0597,-0.61382 -0.30848,-1.11604 -0.54066,-1.6257 -0.11276,-2.26556 1.03819,-4.34511 0.79274,-6.59579 0.77283,-1.29089 1.56224,-2.57061 2.3815,-3.83174 0.73636,-1.16068 2.1029,-1.35784 3.11786,-2.09815 0.34494,-1.0528 -0.20233,-2.29904 0.28856,-3.33323 0.89225,-1.8638 2.04983,-3.59365 3.50262,-4.95522 2.10952,-2.10188 4.87579,-3.03563 7.27388,-4.61668 0.83917,-1.64058 1.37982,-3.49693 2.53409,-4.92174 1.52575,-1.86378 3.32018,-3.72385 5.62871,-4.16654 1.95364,-0.11533 4.03995,0.58778 5.40982,2.21347 0.74628,0.85563 0.84911,2.09816 1.1443,3.19559 0.33501,1.44714 1.07799,2.70454 1.74137,3.98799 1.55229,0.0149 3.20077,0.15624 4.5043,1.2202 2.41467,1.42853 5.20746,2.33996 7.07487,4.7134 1.07134,1.59966 2.21234,3.74618 1.141,5.71041 0.70649,1.32436 1.87072,2.18743 2.75631,3.3258 1.07799,2.96866 1.99675,6.01917 2.66012,9.14407 0.3317,1.99028 0.42124,4.02147 0.66338,6.03034 0.18243,1.09744 -0.30183,2.1056 -0.70318,3.06167 0.26867,2.3102 0.31843,4.66132 0.0299,6.97152 -0.23882,1.89355 -0.89223,3.67921 -1.23055,5.54672 -0.27862,0.20832 -0.54729,0.41293 -0.81262,0.62126 -0.26537,1.57734 -0.44779,3.16955 -0.49092,4.77665 5.19753,-0.21577 10.38844,0.28645 15.58595,-0.007 3.31686,-0.28645 6.6271,0.40549 9.94064,0.0484 3.75138,-0.20833 7.50939,0.25297 11.26409,0 3.10457,-0.21577 6.20915,0.27901 9.31375,-0.004 2.98187,-0.27157 5.96703,0.23809 8.9522,0.0446 2.64357,-0.19345 5.29042,-0.11533 7.93399,-0.0111 1.99669,0.13021 3.96692,-0.40549 5.96703,-0.3162 2.2123,-0.0744 4.41803,0.42781 6.6304,0.15624 2.21235,-0.26785 4.44127,-0.21949 6.6669,-0.15996 -0.1194,-0.39806 -0.20569,-0.80355 -0.26204,-1.21649 -0.40466,0.0149 -0.8027,0.0298 -1.19405,0.0521 -0.44118,-2.07584 -0.38811,-4.23351 -0.8226,-6.30935 -0.18573,-0.90027 -0.2156,-1.82658 -0.23222,-2.74918 -0.33165,-0.13392 -0.65672,-0.26784 -0.9751,-0.40177 0.0431,-1.82286 0.28856,-3.63457 0.31838,-5.45743 -0.37814,0.20461 -0.70979,0.43525 -1.04813,0.68822 -0.41131,-2.15023 -0.0527,-4.34139 -0.24877,-6.51023 -0.12275,-0.95607 0.10613,-1.89727 0.34163,-2.80869 0.43784,-1.6071 0.15925,-3.31464 0.4213,-4.95522 0.3051,-1.92331 0.8358,-3.87265 1.91708,-5.43883 0.952,-1.28345 2.48103,-1.65174 3.66845,-2.57061 0.18244,-0.6101 -0.21553,-1.1458 -0.39797,-1.6815 -0.18244,-2.44413 1.41957,-4.43068 3.22727,-5.50207 1.67503,-2.35113 4.79951,-2.61898 6.15611,-5.33095 1.31015,-2.61897 3.39313,-4.90314 6.02009,-5.74016 1.94041,-0.62499 3.95044,-1.40994 6.00358,-1.01932 1.54237,0.32737 3.14109,1.04535 4.10628,2.50736 0.75293,1.22765 0.89557,2.7901 0.67,4.22979 -0.18245,0.98584 0.22222,1.91587 0.44446,2.84962 1.33669,0.77008 2.87572,0.79983 4.26547,1.4211 1.46279,0.59522 2.99846,0.99327 4.4081,1.76706 1.05477,0.58034 1.93708,1.50665 3.04162,1.99027 1.97351,0.84819 3.66181,2.49249 4.75302,4.51623 0.83258,1.38761 1.81104,2.75663 1.99347,4.47905 0.37815,2.58921 0.99508,5.13378 1.88394,7.56302 -0.49418,-0.60266 -1.01489,-1.17556 -1.62526,-1.62569 0.45111,3.0133 0.64018,6.06381 1.1477,9.06595 0.25539,1.29833 -0.59047,2.45157 -0.46437,3.74246 0.11604,2.11675 0.19898,4.24095 0.0463,6.3577 0.71314,1.0528 1.4362,2.11676 1.93372,3.3258 0.51409,1.06396 0.53398,2.43669 -0.34497,3.26627 -0.01,0.39062 0,0.78123 0.0264,1.17184 1.26045,0.34598 2.57388,0.13393 3.86413,0.18229 2.11281,-0.0484 4.20572,0.60267 6.31859,0.20833 4.2025,-0.50594 8.39166,0.5357 12.59414,0.12648 2.59046,-0.18972 5.17761,0.21577 7.77138,0.12277 0.57385,-2.52225 0.7463,-5.13006 1.14435,-7.69324 -0.25868,0.0335 -0.78276,0.10045 -1.04478,0.13393 0.0168,-0.82215 0,-1.64802 -0.20569,-2.44412 0.19235,-2.19116 0.93866,-4.2484 1.3168,-6.40235 -0.43449,0.36829 -0.85572,0.74774 -1.27365,1.11976 -0.073,-2.90542 2.00669,-5.15982 2.08628,-8.03549 0.11275,-1.56245 -0.26866,-3.18071 0.2554,-4.68736 0.53732,-1.61081 0.65343,-3.34812 1.19411,-4.95521 0.38471,-1.23509 0.2554,-2.70082 1.08129,-3.72757 1.79771,-2.53714 4.20577,-4.75433 7.06159,-5.52812 0.60366,-0.98211 1.10449,-2.04236 1.50586,-3.15095 1.43948,-1.09 2.10952,-3.35556 3.98355,-3.66061 2.47768,-0.69195 5.08474,-1.29089 7.19425,-3.01331 1.50587,-1.28716 3.48273,-1.24252 5.16767,-2.07211 2.40144,-1.17928 5.27381,-0.37573 7.3635,1.2388 1.14427,0.83331 1.5224,2.3474 1.71812,3.77594 1.56883,1.06395 3.37987,1.52525 5.05819,2.33252 2.35166,3.21792 5.64204,5.8778 6.66356,10.07784 0.77283,3.5862 1.34338,7.23193 2.28204,10.77721 0.59703,2.18 0.59374,4.4716 0.73303,6.72228 0.0796,1.23137 -0.31844,2.41065 -0.66334,3.55273 -1.67839,1.32808 -1.23058,3.82429 -1.45945,5.79596 -0.39141,3.05051 0.0828,6.10474 0.2952,9.14408 5.3534,-0.1674 10.7068,0.11533 16.06027,-0.0856 4.19579,0.19345 8.39499,-0.0818 12.59742,0.0558 2.76295,0.18973 5.53255,-0.0818 8.30542,0 1.91717,-0.0558 3.84097,0.43154 5.75144,0.007 -1.22394,-2.99843 -2.04982,-6.16799 -2.96523,-9.2929 -0.5871,-2.15395 -0.23885,-4.39719 -0.18244,-6.59207 -0.19242,-0.20461 -0.37485,-0.40921 -0.54731,-0.61382 0.31181,-1.52525 0.3748,-3.11003 0.82262,-4.6018 0.27857,-1.0156 0.8358,-1.93075 0.93537,-3.00959 0.16247,-1.49549 0.78609,-2.92402 0.6003,-4.46044 0.81262,-1.37644 1.77124,-2.64872 2.36826,-4.17398 0.59703,-0.28645 1.36652,-0.36457 1.78446,-1.00444 1.4893,-2.30648 3.43293,-4.28559 5.72825,-5.53555 1.21066,-0.67707 2.31186,-1.55502 3.34336,-2.54085 1.23056,-0.77379 2.73314,-0.66963 4.05657,-1.19788 0.0136,0.20089 0.0431,0.60266 0.056,0.80726 0.72311,-0.0186 1.45279,-0.041 2.19247,-0.067 0.14263,0.33109 0.29519,0.6659 0.45773,0.99699 1.40301,-0.21949 2.75299,-0.7403 4.14273,-1.04535 0.74965,-0.14136 1.1974,0.71054 1.79114,1.07512 0.85905,-0.39062 0.91875,-1.90471 1.83088,-2.28417 1.04812,0.093 1.90718,0.94492 2.95866,1.07884 1.16423,0.17485 2.48765,-0.093 3.48272,0.78867 0.96519,0.77751 2.12278,1.1272 3.2704,1.43597 0.02,0.60267 0.02,1.21648 0.12939,1.8117 0.51743,0.64359 1.20731,1.09372 1.73802,1.7373 -0.0296,0.72171 -0.17246,1.43226 -0.19237,2.15396 0.36153,0.87796 1.09785,1.46946 1.59209,2.2544 1.73802,2.87566 3.06479,6.02289 4.38821,9.15524 0.471,1.56246 0.48093,3.23652 0.74296,4.85106 0.2554,1.62942 0.37151,3.3072 0.0432,4.93661 -0.50752,-0.10044 -1.00505,-0.20833 -1.4926,-0.31621 0.17245,1.65174 0.26539,3.35928 -0.29191,4.94033 -0.55724,2.49621 -2.25873,4.42696 -2.68001,6.97897 0.40802,0.56546 0.7861,1.15696 1.17749,1.75218 2.77288,0.32365 5.56572,0.10045 8.35186,0.33482 3.21071,0.2604 6.41151,-0.53943 9.61559,-0.067 3.43628,0.46502 6.84933,-0.72171 10.28563,-0.13021 3.31356,0.59895 6.62376,-0.37945 9.95058,-0.15624 2.65684,-0.10788 5.31695,0.51709 7.9638,0.0111 4.07641,-0.13765 8.16278,0.21205 12.23919,-0.15996 5.29042,0.50222 10.61066,-0.21949 15.89777,0.40921 2.43789,-0.0893 4.88904,-0.4985 7.33357,-0.11904 1.33339,0.2418 2.68007,0.0818 4.02004,-0.0707 2.83264,-0.11905 5.68182,-0.11533 8.51439,0.13392 4.99189,-0.50594 10.00367,0.0149 15.00884,-0.21949 2.76958,-0.13392 5.56242,0.27529 8.31869,-0.17113 0.31841,0.0484 0.66,0.10789 1.00169,0.16369 2.60371,-0.81471 5.25722,0.30133 7.88755,-0.0893 3.97026,-0.56918 7.98362,-0.0633 11.96719,-0.31621 2.42128,-0.44641 4.8758,-0.24553 7.32025,-0.23809 l 0,4.90313 c -2.20572,0.20461 -4.41144,0.4985 -6.62376,0.4055 -1.5621,0.026 -3.11117,-0.39434 -4.66014,-0.11904 -2.74305,0.40921 -5.51933,0.21576 -8.27225,0.14508 -2.22899,-0.13393 -4.42465,0.46873 -6.64704,0.34969 -2.21558,0.13764 -4.4213,-0.47246 -6.62377,-0.093 -2.5407,0.21205 -5.09806,0.17485 -7.63541,0.0261 -1.77115,-0.23437 -3.53243,0.17112 -5.29697,0.15252 -2.77628,0.0707 -5.55251,-0.21205 -8.32203,-0.0558 -2.1991,0.11533 -4.39821,0.11905 -6.59066,0.004 -2.89227,-0.18229 -5.78126,0.19345 -8.67024,0.0558 -1.65849,0.026 -3.30365,-0.39434 -4.95207,-0.14509 -2.97857,0.31621 -5.96711,0.0856 -8.94232,-0.0856 -2.98183,0.21204 -5.98358,0.42781 -8.96215,0.0484 -1.44281,-0.21948 -2.87572,0.14137 -4.30862,0.18229 -3.65182,0.18601 -7.30372,-0.37202 -10.94563,0.0558 -3.1013,0.37573 -6.20589,-0.41666 -9.3005,0.0298 -2.76296,0.36829 -5.54581,0.23065 -8.30543,-0.0521 -2.65019,0.0967 -5.2937,0.48362 -7.94718,0.29389 -3.34343,-0.31993 -6.69343,0.0186 -10.02688,0.24552 -0.37814,1.5513 -1.90391,1.76335 -2.92216,2.57806 -1.69165,1.23136 -3.54577,2.16883 -5.17102,3.51924 0.0829,-0.45013 0.16582,-0.90399 0.27529,-1.35041 -0.36487,-0.28645 -0.63353,-0.77006 -1.06473,-0.87795 -2.55729,0.39806 -4.79617,2.02375 -7.33027,2.49993 -0.78609,0.17112 -1.57548,0.28645 -2.35493,0.42037 -0.76954,-0.56917 -1.62525,-1.29832 -2.58715,-0.87795 -2.5142,0.87051 -5.35012,1.61082 -7.85433,0.3125 -1.50587,-0.84448 -3.09795,-1.50666 -4.76308,-1.80055 0.0296,0.49106 0.0896,0.98212 0.13602,1.47689 -1.83422,-0.39061 -3.06478,-2.07211 -4.56403,-3.15839 -1.14761,-0.85563 -2.05309,-2.06095 -3.20071,-2.9017 -2.51755,-0.38317 -5.07154,-0.4799 -7.60229,-0.19717 -3.09794,0.36086 -6.18264,-0.49849 -9.28059,-0.17485 -3.65518,0.34598 -7.30707,-0.39432 -10.95891,0.0261 -3.4263,0.31993 -6.85597,-0.44642 -10.2723,0.0372 -1.99677,0.27902 -4.00017,0.0781 -5.99364,-0.0744 -1.94698,-0.15252 -3.89067,0.0744 -5.81441,0.3497 -0.21895,1.64057 -0.37814,3.35556 -1.25709,4.75432 0.10946,-1.48805 0.45438,-2.96494 0.31508,-4.46043 -0.31181,-0.36457 -0.84578,-0.43526 -1.20403,-0.15252 -0.62026,1.40248 -0.84913,3.08398 -1.86738,4.22978 -1.51914,0.97839 -3.23396,1.54386 -4.70666,2.61898 -0.77947,0.78866 -1.51578,1.65173 -2.49757,2.12047 -0.49754,0.94491 -0.92212,1.93446 -1.32678,2.93146 -0.3151,-0.1116 -0.62021,-0.21948 -0.91875,-0.32737 -0.29186,0.81843 -0.60031,1.62198 -0.88894,2.43669 -0.33829,-0.0558 -0.66999,-0.10789 -0.99172,-0.15997 -0.30518,1.17556 -0.49419,2.51109 -1.43953,3.28116 -0.58705,1.00443 -1.12772,2.06095 -1.37978,3.24023 -0.56385,2.54829 -1.61198,4.94034 -1.90724,7.56303 -0.48755,2.18372 -0.59367,4.86965 -2.45115,6.22006 -0.3151,1.35785 -0.40467,2.81986 -1.02489,4.06238 -0.53068,0.58034 -1.29361,0.77006 -1.93706,1.13092 -0.47428,2.76405 -1.07801,5.5058 -1.26701,8.32193 -0.41131,2.82358 -0.95527,6.08986 -3.2406,7.78996 -1.69827,1.2202 -3.55239,2.14651 -5.32692,3.20675 -1.61198,-0.69566 -3.13441,-1.78938 -4.94544,-1.55873 -0.33499,0.23065 -0.66999,0.44641 -0.99836,0.65474 -1.98014,-1.90843 -4.12283,-3.92102 -4.9587,-6.80412 -0.73303,-3.08399 0.39142,-6.16054 1.18742,-9.07712 0.61029,-2.38461 1.33006,-4.74317 1.69493,-7.19474 -0.38143,-0.47989 -0.77946,-0.93375 -1.07466,-1.47317 0.6468,-3.27744 2.08299,-6.34282 2.33504,-9.72442 -0.02,-1.11976 -0.31509,-2.20976 -0.32172,-3.32952 -0.0431,-1.74102 0.52741,-3.38903 0.72975,-5.09658 -0.48099,-1.03792 -0.50089,-2.22463 -0.61029,-3.35556 -1.79779,3.12119 -3.38988,6.44699 -4.40149,9.99972 -0.64353,2.20232 -1.64521,4.28931 -1.91716,6.61067 -0.21896,3.81313 -1.6518,7.34354 -2.92216,10.83302 0.53734,-3.5304 1.68823,-6.90456 2.03322,-10.47217 0.32836,-3.01702 1.33669,-5.86664 1.78114,-8.85763 0.30184,-1.96795 0.93867,-3.88382 0.95858,-5.90013 0.007,-1.37644 0.21231,-2.80126 -0.34163,-4.09214 -0.58377,0.75147 -1.10449,1.55874 -1.63518,2.35112 -0.38477,-2.07211 0.14258,-4.1405 0.3449,-6.19773 0.21561,-1.98284 0.77948,-3.88382 1.16753,-5.82573 -1.7811,-0.0372 -3.55563,0.14508 -5.33015,0.16368 -3.10458,0.0967 -6.20254,-0.40177 -9.30712,-0.12276 -3.42304,0.25669 -6.82944,-0.49105 -10.24907,-0.20833 -2.96194,0.11532 -5.92394,-0.10416 -8.87925,-0.2232 -0.28522,3.43368 0.64016,7.01989 -0.43122,10.33824 -0.51079,1.82658 -2.26206,2.38832 -3.68171,2.98726 -0.21889,2.73058 -0.37806,5.46859 -0.68988,8.18801 -0.136,1.34669 -0.44775,2.69338 -0.29521,4.05866 0.31839,2.97983 0.56387,5.97082 1.05142,8.92088 0.31516,1.23508 -0.37807,2.4032 -0.25205,3.62341 0.65009,3.34812 1.02822,6.76692 1.95696,10.04435 0.71643,2.41809 0.72969,5.01102 0.38471,7.50723 -0.33164,1.76706 -1.67167,2.94634 -2.67666,4.24839 -1.25047,1.60337 -3.01836,2.48132 -4.40483,3.90613 -0.32173,-0.16741 -0.63682,-0.33481 -0.942,-0.49849 -1.13764,0.18228 -2.24546,-0.0298 -3.26706,-0.58406 -1.84749,-1.06396 -3.19416,1.77078 -5.04828,1.19416 -1.0216,-0.29017 -2.08963,-0.47618 -3.08469,0.0149 -2.48106,-1.76334 -5.23074,-3.14723 -7.36346,-5.44999 -1.46605,-2.43668 -1.1775,-5.5988 -1.0382,-8.38518 0.0631,-4.95149 0.13601,-9.90671 0.15591,-14.86192 0.0464,-1.72242 -0.86904,-3.18071 -1.34005,-4.75061 -1.05141,-3.07655 -2.10952,-6.15682 -2.90223,-9.33381 -0.30184,-1.24996 -0.69325,-2.48505 -1.37978,-3.53784 -0.0264,-0.27901 -0.0763,-0.84075 -0.10286,-1.11976 -0.90219,-0.0707 -1.68829,0.54685 -2.56061,0.58778 -1.67504,-0.24553 -2.47439,-2.16884 -2.81603,-3.80941 -0.56057,-2.81614 -0.8624,-5.68808 -1.21394,-8.54515 -0.20897,-1.63685 -1.00505,-3.06166 -1.51584,-4.58692 -2.65677,0.39062 -5.35341,0.38318 -8.0235,0.20089 -3.20736,-0.39433 -6.41151,0.41666 -9.62222,0.13392 -3.98354,-0.40921 -7.9638,0.35342 -11.94399,-0.0186 -2.55402,-0.28273 -5.10138,0.186 -7.65536,0.0595 -2.11284,-0.004 -4.21574,-0.39061 -6.32526,-0.15624 -2.97192,0.27157 -5.95046,0.0335 -8.91241,-0.21577 -3.32019,0.21949 -6.65032,0.35341 -9.96718,0.0595 -3.09464,0.15253 -6.19259,0.50966 -9.29054,0.23809 -2.6535,-0.26413 -5.29703,0.33853 -7.9472,0.15997 -2.08963,-0.0111 -4.17594,-0.26413 -6.26224,-0.13765 -0.58378,1.69266 -1.5324,3.22907 -1.82761,5.03334 -0.31178,1.61825 -0.6501,3.24023 -1.21396,4.77293 -0.46436,1.39133 -1.86408,2.18743 -1.98017,3.76105 -0.91878,5.14122 -1.70155,10.34569 -3.32019,15.28602 -0.24876,0.81843 -0.62688,1.64802 -0.50747,2.53713 0.51078,4.34512 1.05476,8.6865 1.42293,13.05022 0.12936,1.62942 0.67001,3.18443 0.72971,4.82501 0.0664,3.03191 -0.5506,6.40234 -2.80939,8.3517 -1.69823,1.90842 -3.8575,3.12118 -5.72158,4.7878 -1.75464,-0.52454 -3.5789,-0.84074 -5.39322,-0.77006 -1.30686,0.34969 -2.49429,1.11603 -3.80445,1.44713 -1.141,-1.06768 -2.59048,-1.63686 -3.63529,-2.83102 -0.89223,-1.00816 -2.02991,-1.67034 -2.93874,-2.64874 -1.66839,-2.12419 -2.03987,-5.16354 -1.84085,-7.89412 0.54396,-4.45671 0.67663,-8.96551 0.73303,-13.45571 -1.52908,-6.45071 -2.59381,-13.03906 -3.91723,-19.54929 -0.73634,-0.11532 -1.76788,0.007 -2.05645,-0.96351 -1.22061,-3.16584 -2.00007,-6.56231 -2.20239,-10.00715 -0.10946,-2.22836 -1.18413,-4.16655 -1.85413,-6.21262 -2.32845,-0.0112 -4.65689,0.2046 -6.98202,0.0484 -3.76796,-0.34969 -7.53591,0.43154 -11.30386,0.0818 -2.98518,-0.29761 -5.95377,0.38317 -8.93564,0.24553 -2.33507,-0.0856 -4.66682,-0.24181 -6.99526,0.0446 -3.35004,0.35713 -6.70339,-0.31993 -10.0501,0.0446 -2.07304,0.11904 -4.15936,0.18228 -6.22907,-0.0261 -2.19908,-0.2418 -4.40149,0.0893 -6.60056,0.10417 -2.44122,0.10416 -4.86916,-0.43526 -7.31038,-0.23437 -2.63358,0.19717 -5.27381,0.26785 -7.9074,0.0595 -2.66675,-0.2567 -5.32357,0.30133 -7.99033,0.20832 -2.00007,0 -3.9935,-0.34225 -5.99357,-0.21948 -2.52745,0.13392 -5.05823,0.30505 -7.58236,0.0446 -2.99181,-0.31621 -5.98363,0.17858 -8.97876,0.007 -1.85412,-0.0186 -3.7016,-0.3683 -5.55573,-0.19717 0.0564,1.30949 0.12603,2.61897 0.26866,3.9173 -0.13599,0.11161 -0.40465,0.33481 -0.54064,0.44269 -0.0299,1.28717 -0.75294,2.17628 -1.62195,2.89799 0.10944,5.79968 0.65674,11.58449 0.98842,17.37673 0.21228,1.80427 0.93204,3.47089 1.5523,5.13378 1.23719,2.9017 2.23888,5.91501 3.32681,8.89111 0.61029,1.95679 1.42626,3.97683 1.21729,6.10102 -0.45773,2.58177 -1.94701,4.68364 -3.29365,6.75576 -1.45611,-0.067 -2.90557,-0.17485 -4.35173,-0.34225 -1.28031,1.21276 -2.753,2.10559 -4.20246,3.02818 -1.41962,-0.58778 -3.01503,-0.76262 -4.24228,-1.8303 -2.3218,-1.92331 -3.67176,-4.98498 -4.5441,-7.99084 -0.53402,-2.79754 -1.53901,-5.43512 -2.19908,-8.19173 -0.31841,-1.35413 -1.02823,-2.51481 -1.79443,-3.59365 -1.37317,-1.94191 -2.4213,-4.16283 -3.96364,-5.95221 -1.64516,-1.94935 -2.7928,-4.31907 -4.18919,-6.47674 -1.30022,-2.18372 -2.47771,-4.453 -3.69831,-6.69253 -0.53402,-0.98955 -1.54235,-1.43596 -2.23557,-2.24695 -1.21729,-1.32809 -1.74135,-3.24767 -3.02167,-4.5088 -1.90387,-1.88611 -3.07474,-4.46416 -4.68009,-6.63299 -0.47431,-0.68079 -1.33339,-0.37202 -1.98349,-0.37574 -3.41306,0.42037 -6.84601,0.33109 -10.2657,0.14509 -3.64854,0.37945 -7.31368,0.30505 -10.96555,0.0818 -3.36994,0.30877 -6.74982,0.28273 -10.1297,0.34225 -1.3367,-0.58034 -2.77621,-0.16368 -4.15936,-0.29389 -1.60536,-0.067 -3.40972,-0.39061 -4.7995,0.72914 -4.91228,0.0707 -9.82454,-0.0297 -14.73351,-0.11904 -3.19415,-0.0744 -6.42477,0.26785 -9.58242,-0.40921 -1.88398,-0.33109 -3.79117,-0.0409 -5.6851,-0.0707 -2.66014,0.12276 -5.30367,-0.49478 -7.96049,-0.17857 -2.05645,0.23065 -4.13944,-0.0707 -6.17601,0.1116 -0.8093,1.36902 -1.50584,2.85334 -2.66342,3.90986 -1.16423,-0.80354 -2.51088,-0.37201 -3.67509,0.17857 -2.07305,-0.33853 -4.23232,0.13765 -6.0765,1.23508 -0.20232,0.33109 -0.41129,0.65475 -0.62689,0.97468 -1.54565,0.37573 -3.11454,-0.0298 -4.66351,-0.0967 -2.78286,-0.0186 -5.30699,-1.49177 -7.91404,-2.39204 -1.28031,-0.15625 -2.40472,-0.93375 -3.68171,-1.11232 -2.21898,-0.40922 -3.9902,-2.05723 -6.01016,-3.02075 -0.93535,-0.49477 -1.99012,-0.30505 -2.98187,-0.25669 -2.96858,0.26414 -5.93719,-0.21205 -8.90247,-0.18228 -3.64855,0.32737 -7.30701,0.16369 -10.94894,-0.0446 -3.5325,0.33854 -7.07493,0.27157 -10.60401,0.0372 -3.54243,0.38689 -7.09483,0.31621 -10.64054,0.0967 -3.09795,0.20461 -6.20916,0.39061 -9.3104,0.11532 -2.31521,-0.26784 -4.62706,0.18601 -6.94555,0.17857 -1.44944,0.0298 -2.89227,-0.12648 -4.33515,-0.23064 -2.42462,-0.20833 -4.84596,0.24552 -7.27058,0.13764 -1.98676,-0.0149 -3.96363,-0.30505 -5.95041,-0.32366 -2.65019,0.18229 -5.31367,0.23065 -7.9638,0 -3.42631,-0.52081 -6.87587,0.31622 -10.31217,-0.0818 -3.20072,-0.42409 -6.40487,0.24553 -9.60895,0.0633 -2.20566,-0.10789 -4.41803,-0.35714 -6.62041,-0.0633 -3.88076,0.45386 -7.76817,-0.48361 -11.64223,0.067 -2.537369,0.31621 -5.078104,-0.0893 -7.615543,-0.15253 -1.993413,-0.0558 -3.970276,0.32738 -5.960405,0.29017 -2.417983,-0.0409 -4.829333,-0.43153 -7.250665,-0.25297 -2.341673,0.16369 -4.696675,0.20834 -7.038349,0.0335 -3.200794,-0.39806 -6.404871,0.33108 -9.612297,0.0409 -2.311857,-0.21204 -4.63363,-0.27529 -6.945487,-0.0483 -2.653484,0.17112 -5.300398,-0.13765 -7.947248,-0.24554 -1.774528,0.093 -3.542422,0.26414 -5.320233,0.2009 l 0,-5.38676 c 1.548944,-0.0781 3.097953,-0.0335 4.63363,0.21949 2.328471,0.35342 4.646961,-0.46129 6.975368,-0.1488 0.882305,0.10788 1.771242,0.14508 2.656831,0.0707 2.225629,0.2009 4.474441,0.28646 6.696786,-0.0111 1.300176,-0.186 2.603701,0.041 3.903944,0.10789 4.089668,0.26041 8.185969,-0.10417 12.278986,0.0595 3.648547,0.15625 7.300444,-0.24181 10.948991,0 3.758023,0.20833 7.515987,-0.21205 11.274011,-0.0149 2.54736,0.14136 5.09806,0.0372 7.64542,-0.0335 3.23389,-0.0856 6.4712,0.31993 9.69518,-0.0967 3.83427,0.0484 7.68515,0.33481 11.51948,-0.0298 3.75468,0.24925 7.51599,0.23437 11.27401,0.13021 2.52411,-0.12649 5.02503,0.53197 7.54586,0.29761 3.82102,-0.67334 7.65533,0.50966 11.49296,0.0446 4.4877,-0.36085 8.99532,0.51338 13.46975,-0.186 3.10457,-0.0707 6.22908,0.54313 9.33037,0.0595 3.08134,-0.50966 6.176,0.41294 9.26398,0.0186 2.94203,-0.45386 5.91733,-0.17857 8.86928,-0.0409 5.33357,-0.43154 10.677,0.0633 16.01716,-0.21205 -0.49421,-2.0312 -2.0631,-3.36672 -2.83924,-5.23051 -0.81927,-1.90099 -1.84417,-3.85406 -1.73471,-6.04149 0.073,-1.72986 0.0431,-3.50809 0.60367,-5.15238 0.46103,-1.2388 0.0364,-2.55573 0.0464,-3.83174 0.0199,-1.94935 0.28525,-3.90241 0.85243,-5.7476 0.43451,-1.49549 0.39471,-3.08771 0.62689,-4.62412 0.77947,-1.87495 1.68497,-3.77594 3.16097,-5.0817 0.0663,-0.29389 0.13268,-0.58406 0.20233,-0.87796 1.6717,-1.34296 3.46281,-2.48504 5.37331,-3.34811 1.4528,-1.09744 2.75301,-2.43669 4.24891,-3.4746 2.25547,-1.90471 4.95208,-2.92402 7.3933,-4.46416 1.33337,-0.92631 2.97522,-0.39806 4.4048,-0.9598 1.1808,-0.39805 2.47769,-1.04907 3.68834,-0.37573 1.56558,0.92259 3.38652,0.19717 5.0317,0.74775 0.79271,0.20832 1.57881,0.7031 2.41798,0.50221 1.40635,-0.34969 2.6336,-1.2574 3.98023,-1.78938 1.61201,0.18229 2.89895,1.49177 4.33183,2.23952 0.99506,-0.93747 1.89725,-2.3102 3.29033,-2.45528 1.4727,-0.0558 2.51751,1.24996 3.33015,2.45528 0.52737,0.0111 1.07133,-0.0967 1.5954,0.0595 0.58377,0.37574 1.07798,0.9226 1.69492,1.24997 2.21898,-0.38689 4.41475,-1.59222 6.70338,-0.9598 -0.49089,0.65847 -1.1211,1.14953 -1.81432,1.49922 -1.4163,0.75147 -2.75964,1.65918 -4.09966,2.55945 -0.0596,0.77379 -0.10613,1.55129 -0.14261,2.3288 0.9055,0.31249 1.94368,0.4241 2.65017,1.21276 0.56055,0.66219 0.9055,1.50666 1.33006,2.28045 1.74135,-1.14952 3.38652,-2.46645 4.95872,-3.89127 1.39971,-0.93747 2.95533,-2.01258 4.64029,-1.89354 0.0995,2.36973 -0.89556,4.55344 -1.70154,6.67764 -1.59542,4.07726 -4.01343,7.62626 -6.25893,11.27199 -0.13268,1.60338 -0.0497,3.21047 -0.0366,4.81757 -0.32838,2.32136 -1.26373,4.53112 -2.63691,6.30563 2.29858,2.23951 4.88242,4.05494 7.44636,5.88152 0.47099,0.3125 0.80931,0.79611 1.13104,1.28345 -3.62865,-1.1458 -7.35348,-1.84518 -11.02856,-2.7715 -0.46105,-0.12649 -0.93869,-0.0818 -1.39973,-0.0446 -0.21559,-0.0633 -0.42456,-0.12277 -0.63352,-0.18229 -0.7264,1.3132 -1.57551,2.54457 -2.18581,3.93962 -0.48426,1.24252 -1.74798,1.72986 -2.36162,2.8645 -0.30181,0.55802 -0.52074,1.1644 -0.74628,1.76334 -0.38808,0.4799 -0.76952,0.96352 -1.141,1.45457 2.76626,0.21577 5.54579,0.66591 8.322,0.34969 3.88074,-0.36829 7.77474,0.76636 11.63557,-0.0298 7.1611,-0.15252 14.32553,-0.21204 21.48997,-0.14508 1.54565,-0.0967 2.94538,1.12348 4.50098,0.72171 1.48265,-0.39062 2.96859,-0.88539 4.51426,-0.77752 2.75299,0.10789 5.51925,0.0223 8.26231,0.38318 3.10126,0.40178 6.21581,-0.15625 9.3237,-0.007 4.11955,0.29389 8.20924,-0.50594 12.32878,-0.34969 -0.67331,-1.63686 -1.30353,-3.32952 -2.27537,-4.78037 -0.90549,-1.11232 -2.05976,-2.09444 -2.39477,-3.63457 -0.37812,-1.83403 -0.53733,-3.72385 -1.0614,-5.52067 -1.14431,-3.8243 -1.37981,-7.90529 -1.40302,-11.91187 -0.0497,-2.52596 1.34995,-4.61296 2.38482,-6.72227 0.85574,-1.43969 0.87565,-3.28116 1.75462,-4.70224 0.93203,-1.54386 1.95695,-3.02075 3.088,-4.38976 0.9851,-1.17184 1.55892,-2.67477 2.29196,-4.04007 0.69653,-1.30204 0.64678,-3.06538 1.79441,-4.04377 1.80769,-1.61454 2.75632,-4.06611 4.42801,-5.81829 0.50085,-0.55058 0.99507,-1.11232 1.48264,-1.67778 1.49922,-1.93447 3.61207,-3.12119 5.70502,-4.04378 z"
     id="path4335" />
  <g
     id="g4907"
     transform="matrix(0.93337126,0,0,0.93337126,-73.609298,108.60737)">
    <path
       inkscape:connector-curvature="0"
       style="fill:#ffffff;stroke:#000000;stroke-width:7.10200024;stroke-linejoin:round;stroke-miterlimit:4;stroke-dasharray:none"
       id="path4006"
       d="m 180.97133,305.08271 a 21.97778,18.465843 0 0 1 -43.95556,0 21.97778,18.465843 0 1 1 43.95556,0 z" />
    <path
       inkscape:connector-curvature="0"
       style="fill:#000000;stroke:#000000;stroke-width:7.1018672;stroke-linejoin:round;stroke-miterlimit:4;stroke-dasharray:none"
       id="path4017"
       d="m 167.36604,305.08271 a 8.1108453,7.3863354 0 1 1 -16.22169,0 8.1108453,7.3863354 0 1 1 16.22169,0 z" />
    <path
       inkscape:connector-curvature="0"
       style="fill:#ffffff;stroke:#000000;stroke-width:7.1018672;stroke-linejoin:round;stroke-miterlimit:4;stroke-dasharray:none"
       id="path4028"
       d="m 230.81132,305.08271 a 21.97778,18.465843 0 0 1 -43.95556,0 21.97778,18.465843 0 1 1 43.95556,0 z" />
    <path
       inkscape:connector-curvature="0"
       style="fill:#000000;stroke:#000000;stroke-width:7.1018672;stroke-linejoin:round;stroke-miterlimit:4;stroke-dasharray:none"
       id="path4030"
       d="m 217.20603,305.08271 a 8.1108453,7.3863354 0 1 1 -16.22169,0 8.1108453,7.3863354 0 1 1 16.22169,0 z" />
    <path
       inkscape:connector-curvature="0"
       style="fill:#ffffff;fill-opacity:1;stroke:none;stroke-width:7.10200024;stroke-linejoin:round;stroke-miterlimit:4;stroke-dasharray:none"
       id="path4032"
       d="m 216.09344,300.97716 a 2.8349474,4.0016544 0 1 1 -5.66989,0 2.8349474,4.0016544 0 1 1 5.66989,0 z" />
    <path
       inkscape:connector-curvature="0"
       style="fill:#000000;fill-opacity:1;stroke:#000000;stroke-width:4.31666517;stroke-linejoin:round;stroke-miterlimit:4"
       id="path4036"
       d="m 214.16526,346.59417 c 0,11.63238 -13.52542,49.8363 -30.20987,49.8363 -16.68446,0 -30.20987,-38.20392 -30.20987,-49.8363 0,-11.63237 13.52541,-21.06227 30.20987,-21.06227 16.68445,0 30.20987,9.4299 30.20987,21.06227 z" />
    <path
       inkscape:connector-curvature="0"
       style="fill:#ffffff;fill-opacity:1;stroke:#ffffff;stroke-width:0.6681962;stroke-linejoin:round;stroke-miterlimit:4;stroke-dasharray:none"
       id="path4045"
       d="m 194.41038,319.44161 -10.06403,10e-6 -10.06403,-10e-6 5.03202,5.2826 5.03201,5.2826 5.03201,-5.2826 5.03202,-5.2826 z" />
    <path
       inkscape:connector-curvature="0"
       style="fill:#000000;fill-opacity:1;stroke:#000000;stroke-width:1.63888812;stroke-linejoin:round;stroke-miterlimit:4"
       id="rect4049"
       d="M 203.36576,284.64993 250.461,272.09837 c 3.32472,16.47529 -31.55644,15.97472 -47.61852,15.97472 z" />
    <path
       inkscape:connector-curvature="0"
       style="fill:#000000;fill-opacity:1;stroke:#000000;stroke-width:1.63888812;stroke-linejoin:round;stroke-miterlimit:4"
       id="path4052"
       d="m 164.29625,284.64993 -47.09524,-12.55156 c -3.32472,16.47529 31.55643,15.97472 47.61852,15.97472 z" />
    <path
       inkscape:connector-curvature="0"
       style="fill:#ffa500;fill-opacity:1;stroke:none"
       id="path4076"
       d="m 168.65522,394.4819 a 3.20386,2.8264944 0 0 1 -6.40772,0 3.20386,2.8264944 0 1 1 6.40772,0 z" />
    <path
       inkscape:connector-curvature="0"
       style="fill:#ffa500;fill-opacity:1;stroke:none"
       id="path4078"
       d="m 175.06293,394.4819 a 3.2038584,2.826493 0 0 1 -6.40771,0 3.2038584,2.826493 0 1 1 6.40771,0 z" />
    <path
       inkscape:connector-curvature="0"
       style="fill:#ffa500;fill-opacity:1;stroke:none"
       id="path4080"
       d="m 181.47065,394.4819 a 3.20386,2.8264944 0 0 1 -6.40772,0 3.20386,2.8264944 0 1 1 6.40772,0 z" />
    <path
       inkscape:connector-curvature="0"
       style="fill:#ffa500;fill-opacity:1;stroke:none"
       id="path4082"
       d="m 195.56762,394.4819 a 3.2038584,2.826493 0 0 1 -6.40771,0 3.2038584,2.826493 0 1 1 6.40771,0 z" />
    <path
       inkscape:connector-curvature="0"
       style="fill:#ffa500;fill-opacity:1;stroke:none"
       id="path4084"
       d="m 201.97534,394.4819 a 3.20386,2.8264944 0 0 1 -6.40772,0 3.20386,2.8264944 0 1 1 6.40772,0 z" />
    <path
       inkscape:connector-curvature="0"
       style="fill:#ffa500;fill-opacity:1;stroke:none"
       id="path4086"
       d="m 208.38305,394.4819 a 3.20386,2.8264944 0 0 1 -6.40772,0 3.20386,2.8264944 0 1 1 6.40772,0 z" />
    <path
       inkscape:connector-curvature="0"
       style="color:#000000;display:inline;overflow:visible;visibility:visible;fill:#ffa500;fill-opacity:1;fill-rule:nonzero;stroke:none;stroke-width:1px;marker:none;enable-background:accumulate"
       id="path3427"
       d="m 183.7776,311.40986 c -1.69435,2.28631 -2.70055,5.14744 -4.77383,7.27182 -1.26622,0.90331 -3.87119,-0.46773 -4.9782,0.88114 3.09761,3.77087 6.61239,7.45791 10.20247,10.73174 2.09844,-1.12813 3.572,-3.47473 5.38276,-5.08997 1.64465,-1.89538 3.72353,-3.58935 5.04493,-5.66429 -1.19876,-1.143 -3.38279,-0.26208 -4.92106,-0.6644 -2.54761,-0.86591 -3.29988,-4.02893 -4.70397,-6.05697 -0.38083,-0.43162 -0.56353,-1.43813 -1.2531,-1.40907 z" />
    <path
       style="fill:#ff00ff;fill-opacity:0;stroke:#000000;stroke-width:2.56389904;stroke-linecap:butt;stroke-linejoin:miter;stroke-miterlimit:4;stroke-dasharray:none;stroke-opacity:1"
       d="m 156.27478,326.81132 c -6.4179,-0.75626 -12.74344,-3.73468 -16.71884,-7.87218 -6.53303,-6.7994 -7.63224,-15.96692 -2.87556,-23.98241 0.74984,-1.26356 2.46296,-3.33486 3.80694,-4.60289 1.34397,-1.26803 2.23321,-2.30551 1.97608,-2.30551 -1.08765,0 -6.79149,-0.80167 -9.29332,-1.30617 -11.11189,-2.24074 -16.72684,-6.43077 -16.72684,-12.48204 0,-1.16618 0.15608,-2.27641 0.34685,-2.46718 0.22178,-0.22178 8.41149,1.78517 22.7136,5.56614 12.30172,3.25213 23.91008,6.27201 25.79636,6.71084 1.88629,0.43883 4.81047,1.46793 6.4982,2.2869 5.4087,2.62457 10.67883,8.72892 11.73313,13.59039 l 0.27088,1.24907 0.79374,-2.19208 c 1.62414,-4.48545 4.25634,-7.88513 8.39081,-10.83733 2.79023,-1.99235 5.5753,-3.13493 10.51463,-4.31365 2.12101,-0.50616 13.58906,-3.51391 25.48456,-6.68389 16.89688,-4.50277 21.69332,-5.66093 21.92588,-5.29428 0.16373,0.25812 0.30018,1.37153 0.30322,2.47424 0.016,5.82122 -5.55935,10.07938 -16.05945,12.26526 -2.83043,0.58922 -8.58631,1.43378 -9.77164,1.43378 -0.22236,0 0.91056,1.34115 2.51761,2.98032 3.33917,3.40594 4.99134,6.35874 5.86459,10.48133 1.78593,8.43148 -3.07256,17.57835 -11.70405,22.03469 -8.11843,4.19145 -17.14101,4.40264 -25.17366,0.58925 -4.17437,-1.98173 -4.05918,-1.84663 -2.88597,-3.38479 0.5506,-0.72188 0.89782,-1.41578 0.7716,-1.542 -0.12622,-0.12622 -1.42661,-0.32741 -2.88975,-0.44709 -1.46314,-0.11968 -2.93448,-0.44518 -3.26965,-0.72334 -0.89291,-0.74105 -3.51147,-5.33672 -4.23079,-7.42519 -0.3494,-1.01445 -0.63279,-1.46759 -0.64702,-1.03459 -0.0354,1.0769 -2.65271,6.17426 -4.00686,7.80354 -1.01672,1.22331 -1.29377,1.35379 -2.87442,1.35379 -2.96179,0 -3.53229,0.53474 -2.14543,2.01097 l 0.74588,0.79396 -1.10253,0.78507 c -1.72401,1.22761 -6.11244,3.11325 -8.6925,3.73503 -2.52434,0.60836 -7.33482,0.99378 -9.38628,0.75204 l 0,0 z m 7.90539,-7.36487 c 5.75323,-1.37919 9.96967,-4.51612 12.09297,-8.99687 0.98096,-2.0701 1.12078,-2.74889 1.12078,-5.44133 0,-2.73782 -0.12841,-3.33701 -1.16738,-5.44746 -2.85381,-5.79692 -9.5158,-9.44635 -17.24418,-9.44635 -7.72769,0 -14.3904,3.6495 -17.24362,9.4452 -1.03821,2.10892 -1.16687,2.70928 -1.16737,5.44746 -5.1e-4,2.69439 0.1389,3.37165 1.12021,5.44248 2.09211,4.41494 6.32613,7.60354 11.92187,8.97827 3.70316,0.90977 6.82632,0.91527 10.56672,0.0186 l 0,10e-6 z m 49.773,0.0111 c 4.99692,-1.19796 8.78278,-3.58254 11.00639,-6.93255 6.83571,-10.29845 -1.89135,-22.39364 -16.1577,-22.39364 -13.15121,0 -22.01882,10.58471 -17.16545,20.48932 2.10463,4.29506 6.35892,7.47127 11.79654,8.80715 3.69099,0.90678 6.82484,0.91563 10.52022,0.0297 l 0,10e-6 z"
       id="path3782"
       inkscape:connector-curvature="0"
       inkscape:export-filename="/tmp/ico.png"
       inkscape:export-xdpi="90"
       inkscape:export-ydpi="90" />
    <path
       inkscape:connector-curvature="0"
       style="fill:#ffffff;fill-opacity:1;stroke:none;stroke-width:7.10200024;stroke-linejoin:round;stroke-miterlimit:4;stroke-dasharray:none"
       id="path4032-6"
       d="m 166.93772,300.60192 a 2.8349474,4.0016544 0 1 1 -5.66989,0 2.8349474,4.0016544 0 1 1 5.66989,0 z" />
  </g>
  <text
     xml:space="preserve"
     style="font-style:normal;font-variant:normal;font-weight:bold;font-stretch:normal;font-size:75.4016571px;line-height:125%;font-family:Impact;-inkscape-font-specification:'Impact Bold';letter-spacing:0px;word-spacing:0px;fill:#000000;fill-opacity:1;stroke:#ff9d2e;stroke-width:1.06958449px;stroke-linecap:butt;stroke-linejoin:miter;stroke-opacity:1;"
     x="95.51815"
     y="608.29468"
     id="text4949"
     sodipodi:linespacing="125%"><tspan
       sodipodi:role="line"
       id="tspan4951"
       x="95.51815"
       y="608.29468"
       style="stroke-width:1.06958449px;stroke:#ff9d2e;stroke-opacity:1;">This is owl-fooding buddy!</tspan></text>
</svg>
