<?xml version="1.0" encoding="UTF-8" standalone="no"?>
<!-- Created with Inkscape (http://www.inkscape.org/) -->

<svg
   xmlns:dc="http://purl.org/dc/elements/1.1/"
   xmlns:cc="http://creativecommons.org/ns#"
   xmlns:rdf="http://www.w3.org/1999/02/22-rdf-syntax-ns#"
   xmlns:svg="http://www.w3.org/2000/svg"
   xmlns="http://www.w3.org/2000/svg"
   xmlns:xlink="http://www.w3.org/1999/xlink"
   xmlns:sodipodi="http://sodipodi.sourceforge.net/DTD/sodipodi-0.dtd"
   xmlns:inkscape="http://www.inkscape.org/namespaces/inkscape"
   version="1.1"
   width="1052.3622"
   height="744.09448"
   id="svg2"
   inkscape:version="0.91 r13725"
   sodipodi:docname="birds-on-a-wire.svg"
   inkscape:export-filename="/home/luis/repos/bitergia/website/logo/logo-test.png"
   inkscape:export-xdpi="78.965027"
   inkscape:export-ydpi="78.965027">
  <metadata
     id="metadata3073">
    <rdf:RDF>
      <cc:Work
         rdf:about="">
        <dc:format>image/svg+xml</dc:format>
        <dc:type
           rdf:resource="http://purl.org/dc/dcmitype/StillImage" />
        <dc:title></dc:title>
      </cc:Work>
    </rdf:RDF>
  </metadata>
  <sodipodi:namedview
     pagecolor="#ffffff"
     bordercolor="#666666"
     borderopacity="1"
     objecttolerance="10"
     gridtolerance="10"
     guidetolerance="10"
     inkscape:pageopacity="0"
     inkscape:pageshadow="2"
     inkscape:window-width="1920"
     inkscape:window-height="1024"
     id="namedview3071"
     showgrid="true"
     inkscape:zoom="0.8245137"
     inkscape:cx="449.25502"
     inkscape:cy="281.35464"
     inkscape:window-x="0"
     inkscape:window-y="27"
     inkscape:window-maximized="1"
     inkscape:current-layer="svg2"
     inkscape:snap-grids="true">
    <inkscape:grid
       type="xygrid"
       id="grid3075" />
  </sodipodi:namedview>
  <defs
     id="defs4">
    <filter
       id="filter4464">
      <feGaussianBlur
         id="feGaussianBlur4466"
         stdDeviation="11.23047" />
    </filter>
    <filter
       id="filter4442">
      <feGaussianBlur
         id="feGaussianBlur4444"
         stdDeviation="4.4857825" />
    </filter>
    <radialGradient
       id="radialGradient4671"
       gradientUnits="userSpaceOnUse"
       cy="200.96001"
       cx="280.10999"
       gradientTransform="matrix(1,0,0,1.0526,0,-10.792)"
       r="122.92">
      <stop
         id="stop4667"
         stop-color="#8e8879"
         offset="0" />
      <stop
         id="stop4669"
         stop-color="#49463e"
         offset="1" />
    </radialGradient>
    <filter
       id="filter4643">
      <feGaussianBlur
         id="feGaussianBlur4645"
         stdDeviation="3.0072796" />
    </filter>
    <linearGradient
       id="linearGradient4620"
       x1="439.54001"
       xlink:href="#linearGradient4588"
       spreadMethod="reflect"
       gradientUnits="userSpaceOnUse"
       y1="140.47"
       x2="560.22998"
       y2="213.2" />
    <linearGradient
       id="linearGradient4588">
      <stop
         id="stop4590"
         stop-color="#828282"
         offset="0" />
      <stop
         id="stop4592"
         stop-color="#484848"
         offset="1" />
    </linearGradient>
    <linearGradient
       id="linearGradient4628"
       x1="464.42001"
       xlink:href="#linearGradient4588"
       spreadMethod="reflect"
       gradientUnits="userSpaceOnUse"
       y1="263.89999"
       x2="564.14001"
       y2="191.17" />
    <linearGradient
       id="linearGradient4604"
       x1="206.11"
       xlink:href="#linearGradient4588"
       spreadMethod="reflect"
       gradientUnits="userSpaceOnUse"
       y1="293.95999"
       x2="217.3"
       y2="323.82001" />
    <linearGradient
       id="linearGradient4612"
       x1="314.39001"
       xlink:href="#linearGradient4588"
       spreadMethod="reflect"
       gradientUnits="userSpaceOnUse"
       y1="213.2"
       x2="339.57999"
       y2="87.473" />
    <linearGradient
       id="linearGradient4544"
       x1="132.58"
       xlink:href="#linearGradient4702"
       spreadMethod="reflect"
       gradientUnits="userSpaceOnUse"
       y1="338.32999"
       x2="179.56"
       y2="414.01999" />
    <linearGradient
       id="linearGradient4702">
      <stop
         id="stop4704"
         stop-color="#4d4d4d"
         offset="0" />
      <stop
         id="stop4706"
         stop-color="#1e1e1e"
         offset="1" />
    </linearGradient>
    <radialGradient
       id="radialGradient4687"
       cx="437.31"
       xlink:href="#linearGradient4702"
       gradientUnits="userSpaceOnUse"
       cy="213.2"
       r="122.92" />
    <linearGradient
       id="linearGradient4846"
       x1="170.61"
       xlink:href="#linearGradient4538"
       spreadMethod="reflect"
       gradientUnits="userSpaceOnUse"
       y1="338.14999"
       x2="194.73"
       y2="377.64001" />
    <linearGradient
       id="linearGradient4538">
      <stop
         id="stop4540"
         stop-color="#aaa"
         offset="0" />
      <stop
         id="stop4542"
         stop-color="#6b6b6b"
         offset="1" />
    </linearGradient>
    <linearGradient
       id="linearGradient4578"
       x1="340.37"
       xlink:href="#linearGradient4588"
       spreadMethod="reflect"
       gradientUnits="userSpaceOnUse"
       y1="291.23999"
       x2="360.48001"
       y2="267.97" />
    <linearGradient
       id="linearGradient4586"
       x1="314.39001"
       xlink:href="#linearGradient4588"
       spreadMethod="reflect"
       gradientUnits="userSpaceOnUse"
       y1="213.2"
       x2="351.73999"
       y2="84.216003" />
    <linearGradient
       id="linearGradient4553"
       x1="406.98999"
       xlink:href="#linearGradient4702"
       spreadMethod="reflect"
       gradientUnits="userSpaceOnUse"
       y1="338.32999"
       x2="357.45999"
       y2="420.60001" />
    <radialGradient
       id="radialGradient5031"
       cx="437.31"
       xlink:href="#linearGradient4702"
       gradientUnits="userSpaceOnUse"
       cy="213.2"
       r="122.92" />
    <linearGradient
       id="linearGradient4838"
       x1="388.53"
       xlink:href="#linearGradient4538"
       spreadMethod="reflect"
       gradientUnits="userSpaceOnUse"
       y1="337.04999"
       x2="417.04001"
       y2="310.73001" />
    <filter
       id="filter4661">
      <feGaussianBlur
         id="feGaussianBlur4663"
         stdDeviation="2.460625" />
    </filter>
    <linearGradient
       id="linearGradient4563"
       x1="271.78"
       xlink:href="#linearGradient4538"
       spreadMethod="reflect"
       gradientUnits="userSpaceOnUse"
       y1="266.63"
       x2="330.13"
       y2="266.63" />
    <radialGradient
       id="radialGradient4679"
       cx="285.42999"
       xlink:href="#linearGradient4702"
       gradientUnits="userSpaceOnUse"
       cy="315.44"
       r="57.323002" />
    <filter
       id="filter4752">
      <feGaussianBlur
         id="feGaussianBlur4754"
         stdDeviation="2.2746875" />
    </filter>
    <radialGradient
       id="radialGradient4708"
       xlink:href="#linearGradient4702"
       gradientUnits="userSpaceOnUse"
       cy="258.29001"
       cx="272.44"
       gradientTransform="matrix(1,0,0,0.99973,0,0.083049)"
       r="56.875" />
    <filter
       id="filter4786"
       y="-0.10641"
       width="1.1327"
       x="-0.066362001"
       height="1.2128">
      <feGaussianBlur
         id="feGaussianBlur4788"
         stdDeviation="4.1507616" />
    </filter>
    <radialGradient
       id="radialGradient4716"
       xlink:href="#linearGradient4702"
       gradientUnits="userSpaceOnUse"
       cy="413.98001"
       cx="484.82001"
       gradientTransform="matrix(1,0,0,0.99972,0,0.11388)"
       r="56.875" />
    <radialGradient
       id="radialGradient5080"
       xlink:href="#linearGradient4702"
       gradientUnits="userSpaceOnUse"
       cy="413.98001"
       cx="484.82001"
       gradientTransform="matrix(1,0,0,0.99972,0,0.11388)"
       r="56.875" />
    <radialGradient
       id="radialGradient5088"
       xlink:href="#linearGradient4702"
       gradientUnits="userSpaceOnUse"
       cy="413.98001"
       cx="484.82001"
       gradientTransform="matrix(1,0,0,0.99972,0,0.11388)"
       r="56.875" />
    <filter
       id="filter4820"
       y="-0.10641"
       width="1.1327"
       x="-0.066362001"
       height="1.2128">
      <feGaussianBlur
         id="feGaussianBlur4822"
         stdDeviation="4.1507616" />
    </filter>
    <radialGradient
       id="radialGradient5098"
       xlink:href="#linearGradient4702"
       gradientUnits="userSpaceOnUse"
       cy="413.98001"
       cx="484.82001"
       gradientTransform="matrix(1,0,0,0.99972,0,0.11388)"
       r="56.875" />
    <radialGradient
       id="radialGradient5106"
       xlink:href="#linearGradient4702"
       gradientUnits="userSpaceOnUse"
       cy="413.98001"
       cx="484.82001"
       gradientTransform="matrix(1,0,0,0.99972,0,0.11388)"
       r="56.875" />
    <radialGradient
       id="radialGradient5114"
       xlink:href="#linearGradient4702"
       gradientUnits="userSpaceOnUse"
       cy="413.98001"
       cx="484.82001"
       gradientTransform="matrix(1,0,0,0.99972,0,0.11388)"
       r="56.875" />
    <linearGradient
       id="linearGradient4854"
       x1="280.01001"
       xlink:href="#linearGradient4702"
       spreadMethod="reflect"
       gradientUnits="userSpaceOnUse"
       y1="257.44"
       x2="341.62"
       y2="265.12" />
    <linearGradient
       id="linearGradient4830"
       x1="406.79001"
       xlink:href="#linearGradient4538"
       spreadMethod="reflect"
       gradientUnits="userSpaceOnUse"
       y1="345.89001"
       x2="437.5"
       y2="316.28" />
    <linearGradient
       id="linearGradient4492"
       x1="144.34"
       spreadMethod="repeat"
       gradientUnits="userSpaceOnUse"
       y1="144.58"
       x2="276.17001"
       y2="65.602997">
      <stop
         id="stop4488"
         stop-color="#fff"
         stop-opacity=".79245"
         offset="0" />
      <stop
         id="stop4494"
         stop-color="#fff"
         stop-opacity=".49804"
         offset=".1" />
      <stop
         id="stop4496"
         stop-color="#fff"
         stop-opacity="0"
         offset=".1" />
      <stop
         id="stop4498"
         stop-color="#fff"
         stop-opacity=".36478"
         offset=".28" />
      <stop
         id="stop4500"
         stop-color="#fff"
         stop-opacity=".85535"
         offset=".346" />
      <stop
         id="stop4502"
         stop-color="#fff"
         stop-opacity=".46541"
         offset=".346" />
      <stop
         id="stop4504"
         stop-color="#fff"
         stop-opacity="0"
         offset=".5095" />
      <stop
         id="stop4506"
         stop-color="#fff"
         stop-opacity=".67925"
         offset=".6403" />
      <stop
         id="stop4508"
         stop-color="#fff"
         stop-opacity=".13208"
         offset=".6403" />
      <stop
         id="stop4510"
         stop-color="#fff"
         stop-opacity=".81132"
         offset=".80816" />
      <stop
         id="stop4512"
         stop-color="#fff"
         stop-opacity=".49686"
         offset=".80816" />
      <stop
         id="stop4490"
         stop-color="#fff"
         stop-opacity="0"
         offset="1" />
    </linearGradient>
    <linearGradient
       id="linearGradient4479"
       x1="403.20999"
       xlink:href="#linearGradient4473"
       gradientUnits="userSpaceOnUse"
       y1="89.734001"
       gradientTransform="matrix(1,0,0,0.93991,7.6782,31.399)"
       x2="402.32001"
       y2="144.58" />
    <linearGradient
       id="linearGradient4473">
      <stop
         id="stop4475"
         stop-color="#ececee"
         offset="0" />
      <stop
         id="stop4477"
         stop-color="#ececee"
         stop-opacity="0"
         offset="1" />
    </linearGradient>
    <radialGradient
       id="radialGradient4516"
       xlink:href="#linearGradient4473"
       gradientUnits="userSpaceOnUse"
       cy="155.88"
       cx="279.23001"
       gradientTransform="matrix(1.3232,0,0,0.48478,-89.75,86.426)"
       r="128.99001" />
    <linearGradient
       id="linearGradient4728"
       x1="220.13"
       xlink:href="#linearGradient4473"
       gradientUnits="userSpaceOnUse"
       x2="288.79999"
       y1="315.44"
       y2="315.44" />
  </defs>
  <g
     id="g7532">
    <path
       id="path4335"
       d="m 353.5426,415.54957 c 2.68593,-0.74402 5.42395,-1.76334 8.25869,-1.39504 2.85334,0.0633 5.49835,1.8675 6.93805,4.27814 0.71426,1.13092 0.47245,2.49994 0.23064,3.73502 1.57734,0.85563 3.76849,0.93747 4.453,2.90542 -1.39505,0.24553 -2.83475,0.17485 -4.19631,0.5729 -1.56246,0.36085 -1.52897,2.32136 -2.30648,3.44856 2.56317,1.74102 5.34582,3.30348 7.22821,5.84061 1.94191,1.71125 4.84361,2.68593 5.77736,5.33095 0.43154,2.20231 1.33925,4.27442 1.72987,6.4879 0.5915,2.49621 1.05279,5.02962 1.86006,7.47002 0.21949,0.65103 0.16741,1.34669 0.18229,2.02376 -0.20833,2.96122 1.51409,5.58763 1.52154,8.53398 -0.32738,0.35713 -0.65475,0.71054 -0.97468,1.06768 0.33853,3.79081 0.64358,7.58162 0.7031,11.39104 3.44112,0.27901 6.88969,-0.11161 10.33825,0.0372 2.35484,-0.0186 4.70224,0.56547 7.05709,0.18602 4.20002,-0.56546 8.41494,0.64358 12.60752,0.0149 4.35627,-0.50594 8.72371,0.55802 13.07998,0 4.4716,-0.50222 8.92832,0.51709 13.39991,0.16368 3.89498,-0.24552 7.79368,0.26413 11.68122,-0.13393 2.9203,-0.0335 5.8406,0.20833 8.76463,0.19345 1.99027,0.007 3.9545,-0.46501 5.9522,-0.30877 2.47017,0.16741 4.95894,0.34969 7.42911,0.0335 2.9575,-0.38689 5.94105,-0.093 8.91343,-0.0744 2.99098,0.0223 5.98197,-0.42782 8.97667,-0.20089 4.31536,0.33853 8.61583,-0.40921 12.93862,-0.21204 -0.78122,-1.51409 -1.60709,-3.03563 -1.77822,-4.76177 -0.0558,-1.25741 -1.2574,-2.05352 -1.33924,-3.29232 -0.15253,-1.276 -0.26042,-2.58177 -0.86308,-3.73873 0.21949,-1.75962 0.19717,-3.66805 -0.94863,-5.12634 0.17857,-2.26556 0.33109,-4.53484 0.41294,-6.80412 0.067,-0.61382 -0.34598,-1.11604 -0.60639,-1.6257 -0.12648,-2.26556 1.1644,-4.34511 0.88911,-6.59579 0.86679,-1.29089 1.75219,-2.57061 2.67105,-3.83174 0.82588,-1.16068 2.35857,-1.35784 3.49693,-2.09815 0.38689,-1.0528 -0.22693,-2.29904 0.32365,-3.33323 1.00072,-1.8638 2.29904,-3.59365 3.92846,-4.95522 2.36601,-2.10188 5.46859,-3.03563 8.15825,-4.61668 0.94119,-1.64058 1.54757,-3.49693 2.84218,-4.92174 1.71126,-1.86378 3.72385,-3.72385 6.31306,-4.16654 2.19116,-0.11533 4.53112,0.58778 6.06754,2.21347 0.83702,0.85563 0.95235,2.09816 1.28344,3.19559 0.37574,1.44714 1.20904,2.70454 1.95307,3.98799 1.74102,0.0149 3.58993,0.15624 5.05194,1.2202 2.70825,1.42853 5.8406,2.33996 7.93503,4.7134 1.20161,1.59966 2.48133,3.74618 1.27974,5.71041 0.79238,1.32436 2.09815,2.18743 3.09142,3.3258 1.20905,2.96866 2.23952,6.01917 2.98354,9.14407 0.37202,1.99028 0.47246,4.02147 0.74403,6.03034 0.20461,1.09744 -0.33853,2.1056 -0.78867,3.06167 0.30134,2.3102 0.35714,4.66132 0.0335,6.97152 -0.26785,1.89355 -1.00071,3.67921 -1.38017,5.54672 -0.31248,0.20832 -0.61381,0.41293 -0.91142,0.62126 -0.29762,1.57734 -0.50222,3.16955 -0.55059,4.77665 5.82945,-0.21577 11.65146,0.28645 17.4809,-0.007 3.72013,-0.28645 7.43282,0.40549 11.14923,0.0484 4.20747,-0.20833 8.42238,0.25297 12.63357,0 3.48204,-0.21577 6.96408,0.27901 10.44613,-0.004 3.3444,-0.27157 6.69251,0.23809 10.04062,0.0446 2.96497,-0.19345 5.93362,-0.11533 8.8986,-0.0111 2.23945,0.13021 4.44923,-0.40549 6.69251,-0.3162 2.48127,-0.0744 4.95518,0.42781 7.43652,0.15624 2.48134,-0.26785 4.98125,-0.21949 7.47747,-0.15996 -0.13391,-0.39806 -0.23069,-0.80355 -0.29389,-1.21649 -0.45387,0.0149 -0.9003,0.0298 -1.33922,0.0521 -0.49483,-2.07584 -0.43531,-4.23351 -0.92262,-6.30935 -0.20831,-0.90027 -0.24182,-1.82658 -0.26045,-2.74918 -0.37197,-0.13392 -0.73657,-0.26784 -1.09366,-0.40177 0.0484,-1.82286 0.32365,-3.63457 0.35709,-5.45743 -0.42411,0.20461 -0.79608,0.43525 -1.17556,0.68822 -0.46131,-2.15023 -0.0592,-4.34139 -0.27901,-6.51023 -0.13767,-0.95607 0.11903,-1.89727 0.38316,-2.80869 0.49107,-1.6071 0.17862,-3.31464 0.47251,-4.95522 0.34221,-1.92331 0.93743,-3.87265 2.15018,-5.43883 1.06773,-1.28345 2.78267,-1.65174 4.11446,-2.57061 0.20462,-0.6101 -0.24174,-1.1458 -0.44636,-1.6815 -0.20462,-2.44413 1.59216,-4.43068 3.61963,-5.50207 1.87869,-2.35113 5.38305,-2.61898 6.90458,-5.33095 1.46944,-2.61897 3.80568,-4.90314 6.75202,-5.74016 2.17633,-0.62499 4.43074,-1.40994 6.7335,-1.01932 1.7299,0.32737 3.52299,1.04535 4.60553,2.50736 0.84447,1.22765 1.00445,2.7901 0.75144,4.22979 -0.20462,0.98584 0.24925,1.91587 0.49851,2.84962 1.4992,0.77008 3.22535,0.79983 4.78407,1.4211 1.64063,0.59522 3.36301,0.99327 4.94405,1.76706 1.183,0.58034 2.17258,1.50665 3.41141,1.99027 2.21345,0.84819 4.10702,2.49249 5.3309,4.51623 0.93381,1.38761 2.03122,2.75663 2.23584,4.47905 0.42412,2.58921 1.11605,5.13378 2.11299,7.56302 -0.55427,-0.60266 -1.13829,-1.17556 -1.82286,-1.62569 0.50595,3.0133 0.71801,6.06381 1.28723,9.06595 0.28645,1.29833 -0.66225,2.45157 -0.52083,3.74246 0.13015,2.11675 0.22318,4.24095 0.052,6.3577 0.79984,1.0528 1.6108,2.11676 2.16882,3.3258 0.57659,1.06396 0.59891,2.43669 -0.38691,3.26627 -0.0108,0.39062 0,0.78123 0.0296,1.17184 1.41369,0.34598 2.88682,0.13393 4.33395,0.18229 2.36968,-0.0484 4.71705,0.60267 7.0868,0.20833 4.71344,-0.50594 9.41192,0.5357 14.12535,0.12648 2.90539,-0.18972 5.80709,0.21577 8.71623,0.12277 0.64361,-2.52225 0.83703,-5.13006 1.28347,-7.69324 -0.29014,0.0335 -0.87792,0.10045 -1.17181,0.13393 0.0188,-0.82215 0,-1.64802 -0.23069,-2.44412 0.21574,-2.19116 1.05278,-4.2484 1.47689,-6.40235 -0.48731,0.36829 -0.95975,0.74774 -1.4285,1.11976 -0.0818,-2.90542 2.25066,-5.15982 2.33993,-8.03549 0.12647,-1.56245 -0.30133,-3.18071 0.28645,-4.68736 0.60266,-1.61081 0.73288,-3.34812 1.3393,-4.95521 0.43148,-1.23509 0.28645,-2.70082 1.21275,-3.72757 2.01628,-2.53714 4.71712,-4.75433 7.92015,-5.52812 0.67705,-0.98211 1.23876,-2.04236 1.68895,-3.15095 1.61448,-1.09 2.36599,-3.35556 4.46786,-3.66061 2.77892,-0.69195 5.70294,-1.29089 8.06893,-3.01331 1.68895,-1.28716 3.90616,-1.24252 5.79597,-2.07211 2.6934,-1.17928 5.91499,-0.37573 8.25875,1.2388 1.28339,0.83331 1.7075,2.3474 1.927,3.77594 1.75958,1.06395 3.79081,1.52525 5.67318,2.33252 2.63757,3.21792 6.32799,5.8778 7.47372,10.07784 0.86679,3.5862 1.50671,7.23193 2.55949,10.77721 0.66961,2.18 0.66593,4.4716 0.82215,6.72228 0.0893,1.23137 -0.35716,2.41065 -0.744,3.55273 -1.88244,1.32808 -1.38018,3.82429 -1.63687,5.79596 -0.439,3.05051 0.0929,6.10474 0.33108,9.14408 6.00427,-0.1674 12.00854,0.11533 18.01288,-0.0856 4.70592,0.19345 9.41567,-0.0818 14.12903,0.0558 3.09888,0.18973 6.2052,-0.0818 9.3152,0 2.15026,-0.0558 4.30796,0.43154 6.4507,0.007 -1.37274,-2.99843 -2.29904,-6.16799 -3.32574,-9.2929 -0.65849,-2.15395 -0.26789,-4.39719 -0.20462,-6.59207 -0.21581,-0.20461 -0.42043,-0.40921 -0.61385,-0.61382 0.34972,-1.52525 0.42036,-3.11003 0.92262,-4.6018 0.31245,-1.0156 0.93743,-1.93075 1.04909,-3.00959 0.18223,-1.49549 0.88167,-2.92402 0.6733,-4.46044 0.91142,-1.37644 1.98659,-2.64872 2.6562,-4.17398 0.66961,-0.28645 1.53265,-0.36457 2.0014,-1.00444 1.67038,-2.30648 3.85032,-4.28559 6.4247,-5.53555 1.35786,-0.67707 2.59293,-1.55502 3.74985,-2.54085 1.38018,-0.77379 3.06544,-0.66963 4.54977,-1.19788 0.0152,0.20089 0.0484,0.60266 0.0628,0.80726 0.81103,-0.0186 1.62943,-0.041 2.45903,-0.067 0.15998,0.33109 0.33108,0.6659 0.51338,0.99699 1.5736,-0.21949 3.08769,-0.7403 4.64641,-1.04535 0.84079,-0.14136 1.34298,0.71054 2.00891,1.07512 0.9635,-0.39062 1.03045,-1.90471 2.05347,-2.28417 1.17556,0.093 2.13906,0.94492 3.31838,1.07884 1.30578,0.17485 2.79011,-0.093 3.90616,0.78867 1.08253,0.77751 2.38087,1.1272 3.66802,1.43597 0.0224,0.60267 0.0224,1.21648 0.14511,1.8117 0.58034,0.64359 1.3541,1.09372 1.94932,1.7373 -0.0332,0.72171 -0.19342,1.43226 -0.21574,2.15396 0.40548,0.87796 1.23132,1.46946 1.78565,2.2544 1.94933,2.87566 3.43741,6.02289 4.92174,9.15524 0.52826,1.56246 0.53939,3.23652 0.83328,4.85106 0.28645,1.62942 0.41667,3.3072 0.0484,4.93661 -0.56922,-0.10044 -1.12724,-0.20833 -1.67407,-0.31621 0.19342,1.65174 0.29765,3.35928 -0.3274,4.94033 -0.62498,2.49621 -2.53335,4.42696 -3.00585,6.97897 0.45762,0.56546 0.88167,1.15696 1.32066,1.75218 3.11,0.32365 6.2424,0.10045 9.36728,0.33482 3.60107,0.2604 7.19102,-0.53943 10.78465,-0.067 3.85408,0.46502 7.68209,-0.72171 11.53617,-0.13021 3.71642,0.59895 7.42908,-0.37945 11.16038,-0.15624 2.97985,-0.10788 5.96339,0.51709 8.93204,0.0111 4.57202,-0.13765 9.15523,0.21205 13.72724,-0.15996 5.93363,0.50222 11.9007,-0.21949 17.83064,0.40921 2.73429,-0.0893 5.48345,-0.4985 8.22517,-0.11904 1.49552,0.2418 3.00592,0.0818 4.50881,-0.0707 3.17703,-0.11905 6.37262,-0.11533 9.54958,0.13392 5.59878,-0.50594 11.21988,0.0149 16.83358,-0.21949 3.1063,-0.13392 6.2387,0.27529 9.3301,-0.17113 0.3571,0.0484 0.7403,0.10789 1.1235,0.16369 2.9203,-0.81471 5.8964,0.30133 8.8465,-0.0893 4.453,-0.56918 8.9543,-0.0633 13.4222,-0.31621 2.7157,-0.44641 5.4686,-0.24553 8.2103,-0.23809 l 0,4.90313 c -2.4739,0.20461 -4.9478,0.4985 -7.4291,0.4055 -1.7521,0.026 -3.4895,-0.39434 -5.2268,-0.11904 -3.0765,0.40921 -6.1903,0.21576 -9.278,0.14508 -2.4999,-0.13393 -4.9626,0.46873 -7.4551,0.34969 -2.485,0.13764 -4.9589,-0.47246 -7.4291,-0.093 -2.8496,0.21205 -5.7179,0.17485 -8.5638,0.0261 -1.9865,-0.23437 -3.9619,0.17112 -5.941,0.15252 -3.11378,0.0707 -6.22754,-0.21205 -9.33379,-0.0558 -2.46646,0.11533 -4.93293,0.11905 -7.39195,0.004 -3.24391,-0.18229 -6.48414,0.19345 -9.72437,0.0558 -1.86012,0.026 -3.7053,-0.39434 -5.55415,-0.14509 -3.3407,0.31621 -6.69259,0.0856 -10.02953,-0.0856 -3.34437,0.21204 -6.71107,0.42781 -10.05177,0.0484 -1.61823,-0.21948 -3.22535,0.14137 -4.83246,0.18229 -4.09582,0.18601 -8.19172,-0.37202 -12.27642,0.0558 -3.47836,0.37573 -6.9604,-0.41666 -10.43125,0.0298 -3.09888,0.36829 -6.22008,0.23065 -9.31521,-0.0521 -2.97241,0.0967 -5.93731,0.48362 -8.9134,0.29389 -3.74993,-0.31993 -7.50723,0.0186 -11.24597,0.24552 -0.42411,1.5513 -2.13538,1.76335 -3.27742,2.57806 -1.89732,1.23136 -3.97687,2.16883 -5.79972,3.51924 0.093,-0.45013 0.18598,-0.90399 0.30876,-1.35041 -0.40923,-0.28645 -0.71056,-0.77006 -1.19419,-0.87795 -2.86819,0.39806 -5.37929,2.02375 -8.22148,2.49993 -0.88167,0.17112 -1.76702,0.28645 -2.64125,0.42037 -0.86311,-0.56917 -1.82285,-1.29832 -2.9017,-0.87795 -2.81987,0.87051 -6.00059,1.61082 -8.80926,0.3125 -1.68895,-0.84448 -3.4746,-1.50666 -5.34217,-1.80055 0.0332,0.49106 0.10047,0.98212 0.15255,1.47689 -2.05723,-0.39061 -3.43741,-2.07211 -5.11892,-3.15839 -1.28715,-0.85563 -2.30272,-2.06095 -3.58987,-2.9017 -2.82363,-0.38317 -5.68813,-0.4799 -8.52657,-0.19717 -3.4746,0.36086 -6.93432,-0.49849 -10.40893,-0.17485 -4.09958,0.34598 -8.19547,-0.39432 -12.2913,0.0261 -3.84288,0.31993 -7.68953,-0.44642 -11.52122,0.0372 -2.23953,0.27902 -4.4865,0.0781 -6.72234,-0.0744 -2.1837,-0.15252 -4.36371,0.0744 -6.52134,0.3497 -0.24557,1.64057 -0.42411,3.35556 -1.40993,4.75432 0.12278,-1.48805 0.50963,-2.96494 0.3534,-4.46043 -0.34972,-0.36457 -0.94862,-0.43526 -1.35042,-0.15252 -0.69568,1.40248 -0.95238,3.08398 -2.09442,4.22978 -1.70383,0.97839 -3.62715,1.54386 -5.2789,2.61898 -0.87423,0.78866 -1.70007,1.65173 -2.80123,2.12047 -0.55803,0.94491 -1.03422,1.93446 -1.48809,2.93146 -0.3534,-0.1116 -0.69561,-0.21948 -1.03045,-0.32737 -0.32734,0.81843 -0.6733,1.62198 -0.99702,2.43669 -0.37941,-0.0558 -0.75145,-0.10789 -1.11229,-0.15997 -0.34228,1.17556 -0.55427,2.51109 -1.61455,3.28116 -0.65842,1.00443 -1.26483,2.06095 -1.54753,3.24023 -0.63241,2.54829 -1.80797,4.94034 -2.13913,7.56303 -0.54683,2.18372 -0.66586,4.86965 -2.74916,6.22006 -0.35341,1.35785 -0.45387,2.81986 -1.14949,4.06238 -0.59522,0.58034 -1.45089,0.77006 -2.17257,1.13092 -0.53195,2.76405 -1.20908,5.5058 -1.42106,8.32193 -0.46131,2.82358 -1.07141,6.08986 -3.63459,7.78996 -1.90476,1.2202 -3.9843,2.14651 -5.97458,3.20675 -1.80797,-0.69566 -3.51548,-1.78938 -5.54671,-1.55873 -0.37572,0.23065 -0.75144,0.44641 -1.11973,0.65474 -2.22089,-1.90843 -4.62409,-3.92102 -5.56159,-6.80412 -0.82215,-3.08399 0.439,-6.16054 1.33179,-9.07712 0.68449,-2.38461 1.49177,-4.74317 1.901,-7.19474 -0.4278,-0.47989 -0.87423,-0.93375 -1.20532,-1.47317 0.72545,-3.27744 2.33625,-6.34282 2.61894,-9.72442 -0.0224,-1.11976 -0.3534,-2.20976 -0.36084,-3.32952 -0.0484,-1.74102 0.59153,-3.38903 0.81847,-5.09658 -0.53946,-1.03792 -0.56178,-2.22463 -0.68449,-3.35556 -2.01635,3.12119 -3.80201,6.44699 -4.93662,9.99972 -0.72176,2.20232 -1.84524,4.28931 -2.15025,6.61067 -0.24557,3.81313 -1.85262,7.34354 -3.27743,10.83302 0.60266,-3.5304 1.89349,-6.90456 2.28041,-10.47217 0.36828,-3.01702 1.49921,-5.86664 1.99771,-8.85763 0.33853,-1.96795 1.05278,-3.88382 1.0751,-5.90013 0.007,-1.37644 0.23813,-2.80126 -0.38316,-4.09214 -0.65474,0.75147 -1.23876,1.55874 -1.83398,2.35112 -0.43156,-2.07211 0.15991,-4.1405 0.38684,-6.19773 0.24182,-1.98284 0.87423,-3.88382 1.30947,-5.82573 -1.99764,-0.0372 -3.98792,0.14508 -5.97819,0.16368 -3.48204,0.0967 -6.95665,-0.40177 -10.43869,-0.12276 -3.8392,0.25669 -7.65977,-0.49105 -11.49515,-0.20833 -3.32206,0.11532 -6.64419,-0.10416 -9.95881,-0.2232 -0.31989,3.43368 0.718,7.01989 -0.48363,10.33824 -0.5729,1.82658 -2.5371,2.38832 -4.12934,2.98726 -0.2455,2.73058 -0.42404,5.46859 -0.77376,8.18801 -0.15254,1.34669 -0.50219,2.69338 -0.33109,4.05866 0.35709,2.97983 0.63242,5.97082 1.17924,8.92088 0.35348,1.23508 -0.42404,2.4032 -0.28269,3.62341 0.72913,3.34812 1.15324,6.76692 2.19489,10.04435 0.80352,2.41809 0.8184,5.01102 0.43148,7.50723 -0.37196,1.76706 -1.87492,2.94634 -3.00209,4.24839 -1.4025,1.60337 -3.38533,2.48132 -4.94037,3.90613 -0.36085,-0.16741 -0.71425,-0.33481 -1.05653,-0.49849 -1.27596,0.18228 -2.51847,-0.0298 -3.66427,-0.58406 -2.07211,-1.06396 -3.58251,1.77078 -5.66206,1.19416 -1.1458,-0.29017 -2.34368,-0.47618 -3.45972,0.0149 -2.78271,-1.76334 -5.86671,-3.14723 -8.25871,-5.44999 -1.64431,-2.43668 -1.32066,-5.5988 -1.16443,-8.38518 0.0708,-4.95149 0.15254,-9.90671 0.17486,-14.86192 0.052,-1.72242 -0.9747,-3.18071 -1.50297,-4.75061 -1.17924,-3.07655 -2.36599,-6.15682 -3.2551,-9.33381 -0.33853,-1.24996 -0.77752,-2.48505 -1.54753,-3.53784 -0.0296,-0.27901 -0.0856,-0.84075 -0.11535,-1.11976 -1.01189,-0.0707 -1.89356,0.54685 -2.87194,0.58778 -1.87869,-0.24553 -2.77523,-2.16884 -3.1584,-3.80941 -0.62873,-2.81614 -0.96725,-5.68808 -1.36154,-8.54515 -0.23437,-1.63685 -1.12724,-3.06166 -1.70014,-4.58692 -2.97978,0.39062 -6.00427,0.38318 -8.999,0.20089 -3.59731,-0.39433 -7.19102,0.41666 -10.79209,0.13392 -4.46786,-0.40921 -8.93204,0.35342 -13.39615,-0.0186 -2.86453,-0.28273 -5.7216,0.186 -8.5861,0.0595 -2.36972,-0.004 -4.72829,-0.39061 -7.09429,-0.15624 -3.33324,0.27157 -6.67391,0.0335 -9.99599,-0.21577 -3.72385,0.21949 -7.45886,0.35341 -11.17899,0.0595 -3.47089,0.15253 -6.94549,0.50966 -10.42009,0.23809 -2.97611,-0.26413 -5.94105,0.33853 -8.91343,0.15997 -2.34369,-0.0111 -4.68365,-0.26413 -7.02361,-0.13765 -0.65475,1.69266 -1.7187,3.22907 -2.0498,5.03334 -0.34969,1.61825 -0.72914,3.24023 -1.36156,4.77293 -0.52082,1.39133 -2.09072,2.18743 -2.22092,3.76105 -1.03048,5.14122 -1.90843,10.34569 -3.72386,15.28602 -0.279,0.81843 -0.7031,1.64802 -0.56917,2.53713 0.57289,4.34512 1.183,8.6865 1.59593,13.05022 0.14509,1.62942 0.75147,3.18443 0.81843,4.82501 0.0744,3.03191 -0.61754,6.40234 -3.15095,8.3517 -1.90471,1.90842 -4.32651,3.12118 -6.41723,4.7878 -1.96795,-0.52454 -4.01402,-0.84074 -6.04893,-0.77006 -1.46573,0.34969 -2.79754,1.11603 -4.26699,1.44713 -1.27973,-1.06768 -2.90543,-1.63686 -4.07727,-2.83102 -1.00071,-1.00816 -2.27671,-1.67034 -3.29603,-2.64874 -1.87123,-2.12419 -2.28788,-5.16354 -2.06467,-7.89412 0.6101,-4.45671 0.7589,-8.96551 0.82215,-13.45571 -1.71499,-6.45071 -2.90915,-13.03906 -4.39348,-19.54929 -0.82587,-0.11532 -1.98283,0.007 -2.30648,-0.96351 -1.36901,-3.16584 -2.24324,-6.56231 -2.47017,-10.00715 -0.12276,-2.22836 -1.32808,-4.16655 -2.07955,-6.21262 -2.61153,-0.0112 -5.22307,0.2046 -7.83088,0.0484 -4.22607,-0.34969 -8.45213,0.43154 -12.6782,0.0818 -3.34812,-0.29761 -6.67764,0.38317 -10.02204,0.24553 -2.61897,-0.0856 -5.23422,-0.24181 -7.84575,0.0446 -3.75734,0.35713 -7.51839,-0.31993 -11.272,0.0446 -2.32508,0.11904 -4.66505,0.18228 -6.98641,-0.0261 -2.46644,-0.2418 -4.93661,0.0893 -7.40305,0.10417 -2.73803,0.10416 -5.46116,-0.43526 -8.19918,-0.23437 -2.95378,0.19717 -5.91501,0.26785 -8.86879,0.0595 -2.99098,-0.2567 -5.97081,0.30133 -8.9618,0.20832 -2.24324,0 -4.47903,-0.34225 -6.72227,-0.21948 -2.83474,0.13392 -5.67321,0.30505 -8.50422,0.0446 -3.35556,-0.31621 -6.71112,0.17858 -10.0704,0.007 -2.07955,-0.0186 -4.15166,-0.3683 -6.23121,-0.19717 0.0633,1.30949 0.14136,2.61897 0.30132,3.9173 -0.15252,0.11161 -0.45385,0.33481 -0.60637,0.44269 -0.0335,1.28717 -0.84448,2.17628 -1.81915,2.89799 0.12276,5.79968 0.73659,11.58449 1.1086,17.37673 0.23808,1.80427 1.04535,3.47089 1.74102,5.13378 1.38761,2.9017 2.51109,5.91501 3.73129,8.89111 0.6845,1.95679 1.59966,3.97683 1.36529,6.10102 -0.51338,2.58177 -2.18372,4.68364 -3.69409,6.75576 -1.63314,-0.067 -3.25884,-0.17485 -4.88082,-0.34225 -1.43596,1.21276 -3.0877,2.10559 -4.7134,3.02818 -1.59221,-0.58778 -3.3816,-0.76262 -4.75805,-1.8303 -2.60409,-1.92331 -4.11818,-4.98498 -5.09658,-7.99084 -0.59894,-2.79754 -1.72613,-5.43512 -2.46644,-8.19173 -0.35713,-1.35413 -1.15324,-2.51481 -2.0126,-3.59365 -1.54013,-1.94191 -2.71569,-4.16283 -4.44555,-5.95221 -1.84518,-1.94935 -3.13235,-4.31907 -4.69852,-6.47674 -1.4583,-2.18372 -2.77894,-4.453 -4.14795,-6.69253 -0.59894,-0.98955 -1.72987,-1.43596 -2.50737,-2.24695 -1.36529,-1.32809 -1.95307,-3.24767 -3.38904,-4.5088 -2.13535,-1.88611 -3.44856,-4.46416 -5.24911,-6.63299 -0.53197,-0.68079 -1.49549,-0.37202 -2.22463,-0.37574 -3.82802,0.42037 -7.67836,0.33109 -11.51381,0.14509 -4.09214,0.37945 -8.20289,0.30505 -12.29876,0.0818 -3.77965,0.30877 -7.57046,0.28273 -11.36127,0.34225 -1.49921,-0.58034 -3.11375,-0.16368 -4.66505,-0.29389 -1.80054,-0.067 -3.82429,-0.39061 -5.38303,0.72914 -5.50952,0.0707 -11.01902,-0.0297 -16.52482,-0.11904 -3.58249,-0.0744 -7.2059,0.26785 -10.74746,-0.40921 -2.11303,-0.33109 -4.25211,-0.0409 -6.3763,-0.0707 -2.98355,0.12276 -5.94849,-0.49478 -8.92832,-0.17857 -2.30648,0.23065 -4.64272,-0.0707 -6.92689,0.1116 -0.9077,1.36902 -1.68893,2.85334 -2.98726,3.90986 -1.30577,-0.80354 -2.81614,-0.37201 -4.1219,0.17857 -2.32508,-0.33853 -4.74689,0.13765 -6.81529,1.23508 -0.22692,0.33109 -0.46129,0.65475 -0.7031,0.97468 -1.73358,0.37573 -3.4932,-0.0298 -5.2305,-0.0967 -3.1212,-0.0186 -5.95221,-1.49177 -8.87624,-2.39204 -1.43597,-0.15625 -2.69709,-0.93375 -4.12934,-1.11232 -2.48877,-0.40922 -4.47532,-2.05723 -6.74088,-3.02075 -1.04907,-0.49477 -2.23208,-0.30505 -3.3444,-0.25669 -3.32951,0.26414 -6.65903,-0.21205 -9.98483,-0.18228 -4.09216,0.32737 -8.19542,0.16369 -12.28013,-0.0446 -3.96198,0.33854 -7.9351,0.27157 -11.89326,0.0372 -3.97311,0.38689 -7.95741,0.31621 -11.93421,0.0967 -3.4746,0.20461 -6.96408,0.39061 -10.44237,0.11532 -2.59669,-0.26784 -5.18962,0.18601 -7.79,0.17857 -1.62567,0.0298 -3.24391,-0.12648 -4.86222,-0.23064 -2.7194,-0.20833 -5.43512,0.24552 -8.15452,0.13764 -2.22833,-0.0149 -4.44555,-0.30505 -6.67388,-0.32366 -2.97241,0.18229 -5.9597,0.23065 -8.93204,0 -3.84289,-0.52081 -7.711849,0.31622 -11.56593,-0.0818 -3.589877,-0.42409 -7.183582,0.24553 -10.777215,0.0633 -2.473832,-0.10789 -4.955176,-0.35714 -7.425324,-0.0633 -4.35259,0.45386 -8.712619,-0.48361 -13.057697,0.067 -2.845871,0.31621 -5.695505,-0.0893 -8.541448,-0.15253 -2.235773,-0.0558 -4.452985,0.32738 -6.685074,0.29017 -2.711963,-0.0409 -5.416487,-0.43153 -8.132206,-0.25297 -2.626375,0.16369 -5.2677,0.20834 -7.894075,0.0335 -3.589949,-0.39806 -7.183581,0.33108 -10.780966,0.0409 -2.592934,-0.21204 -5.196991,-0.27529 -7.789924,-0.0483 -2.976096,0.17112 -5.9448245,-0.13765 -8.9134807,-0.24554 -1.9902753,0.093 -3.9731112,0.26414 -5.96706993,0.2009 l 0,-5.38676 c 1.73726557,-0.0781 3.47460333,-0.0335 5.19699023,0.21949 2.6115682,0.35342 5.2119412,-0.46129 7.8234374,-0.1488 0.989576,0.10788 1.986591,0.14508 2.979851,0.0707 2.496222,0.2009 5.018446,0.28646 7.510985,-0.0111 1.458251,-0.186 2.920261,0.041 4.378587,0.10789 4.586893,0.26041 9.181225,-0.10417 13.771873,0.0595 4.09214,0.15625 8.188037,-0.24181 12.280177,0 4.214926,0.20833 8.429787,-0.21205 12.644712,-0.0149 2.857066,0.14136 5.717888,0.0372 8.574955,-0.0335 3.627073,-0.0856 7.257975,0.31993 10.873926,-0.0967 4.300442,0.0484 8.619518,0.33481 12.920032,-0.0298 4.211174,0.24925 8.429784,0.23437 12.644704,0.13021 2.83099,-0.12649 5.63598,0.53197 8.46329,0.29761 4.28557,-0.67334 8.58608,0.50966 12.89028,0.0446 5.03332,-0.36085 10.08897,0.51338 15.10741,-0.186 3.48204,-0.0707 6.98641,0.54313 10.46476,0.0595 3.45597,-0.50966 6.92689,0.41294 10.3903,0.0186 3.29974,-0.45386 6.63676,-0.17857 9.94762,-0.0409 5.98202,-0.43154 11.97512,0.0633 17.96453,-0.21205 -0.55429,-2.0312 -2.31392,-3.36672 -3.18443,-5.23051 -0.91887,-1.90099 -2.06839,-3.85406 -1.94563,-6.04149 0.0818,-1.72986 0.0484,-3.50809 0.67707,-5.15238 0.51709,-1.2388 0.0409,-2.55573 0.0521,-3.83174 0.0223,-1.94935 0.31993,-3.90241 0.95607,-5.7476 0.48734,-1.49549 0.4427,-3.08771 0.70311,-4.62412 0.87423,-1.87495 1.88983,-3.77594 3.54528,-5.0817 0.0744,-0.29389 0.14881,-0.58406 0.22693,-0.87796 1.87494,-1.34296 3.88382,-2.48504 6.02661,-3.34811 1.62942,-1.09744 3.08771,-2.43669 4.76549,-3.4746 2.52969,-1.90471 5.55416,-2.92402 8.29217,-4.46416 1.4955,-0.92631 3.33696,-0.39806 4.94034,-0.9598 1.32437,-0.39805 2.77894,-1.04907 4.13678,-0.37573 1.75591,0.92259 3.79826,0.19717 5.64345,0.74775 0.8891,0.20832 1.77077,0.7031 2.71197,0.50221 1.57734,-0.34969 2.95378,-1.2574 4.46415,-1.78938 1.80799,0.18229 3.2514,1.49177 4.8585,2.23952 1.11603,-0.93747 2.12791,-2.3102 3.69037,-2.45528 1.65173,-0.0558 2.82357,1.24996 3.73501,2.45528 0.5915,0.0111 1.2016,-0.0967 1.78938,0.0595 0.65474,0.37574 1.20905,0.9226 1.90099,1.24997 2.48876,-0.38689 4.95149,-1.59222 7.51838,-0.9598 -0.55057,0.65847 -1.2574,1.14953 -2.03491,1.49922 -1.58849,0.75147 -3.09515,1.65918 -4.59808,2.55945 -0.0669,0.77379 -0.11904,1.55129 -0.15997,2.3288 1.0156,0.31249 2.18,0.4241 2.97239,1.21276 0.6287,0.66219 1.0156,1.50666 1.49177,2.28045 1.95307,-1.14952 3.79825,-2.46645 5.5616,-3.89127 1.56989,-0.93747 3.31463,-2.01258 5.20446,-1.89354 0.1116,2.36973 -1.00444,4.55344 -1.90842,6.67764 -1.78939,4.07726 -4.50137,7.62626 -7.01989,11.27199 -0.14881,1.60338 -0.0558,3.21047 -0.041,4.81757 -0.36829,2.32136 -1.41737,4.53112 -2.95751,6.30563 2.57805,2.23951 5.47603,4.05494 8.3517,5.88152 0.52825,0.3125 0.90771,0.79611 1.26856,1.28345 -4.06982,-1.1458 -8.24753,-1.84518 -12.36943,-2.7715 -0.5171,-0.12649 -1.05281,-0.0818 -1.5699,-0.0446 -0.24181,-0.0633 -0.47618,-0.12277 -0.71055,-0.18229 -0.81471,1.3132 -1.76706,2.54457 -2.45156,3.93962 -0.54314,1.24252 -1.96051,1.72986 -2.64874,2.8645 -0.33852,0.55802 -0.58406,1.1644 -0.83702,1.76334 -0.43526,0.4799 -0.86308,0.96352 -1.27973,1.45457 3.10259,0.21577 6.22006,0.66591 9.33381,0.34969 4.35255,-0.36829 8.71999,0.76636 13.05022,-0.0298 8.03176,-0.15252 16.06725,-0.21204 24.10273,-0.14508 1.73358,-0.0967 3.30348,1.12348 5.04822,0.72171 1.6629,-0.39062 3.32951,-0.88539 5.06309,-0.77752 3.08771,0.10789 6.1903,0.0223 9.26685,0.38318 3.47832,0.40178 6.97153,-0.15625 10.45729,-0.007 4.6204,0.29389 9.20733,-0.50594 13.82772,-0.34969 -0.75518,-1.63686 -1.46201,-3.32952 -2.55201,-4.78037 -1.01559,-1.11232 -2.31019,-2.09444 -2.68593,-3.63457 -0.42409,-1.83403 -0.60266,-3.72385 -1.19044,-5.52067 -1.28344,-3.8243 -1.54757,-7.90529 -1.57361,-11.91187 -0.0558,-2.52596 1.51409,-4.61296 2.67477,-6.72227 0.95979,-1.43969 0.98212,-3.28116 1.96795,-4.70224 1.04536,-1.54386 2.19487,-3.02075 3.46344,-4.38976 1.10488,-1.17184 1.74846,-2.67477 2.57062,-4.04007 0.78122,-1.30204 0.72542,-3.06538 2.01258,-4.04377 2.02747,-1.61454 3.09143,-4.06611 4.96638,-5.81829 0.56173,-0.55058 1.11604,-1.11232 1.66289,-1.67778 1.6815,-1.93447 4.05123,-3.12119 6.39863,-4.04378 z"
       inkscape:connector-curvature="0" />
    <g
       transform="matrix(0.93337126,0,0,0.93337126,-73.609298,108.60737)"
       id="g4907">
      <path
         d="m 180.97133,305.08271 a 21.97778,18.465843 0 0 1 -43.95556,0 21.97778,18.465843 0 1 1 43.95556,0 z"
         id="path4006"
         style="fill:#ffffff;stroke:#000000;stroke-width:7.10200024;stroke-linejoin:round;stroke-miterlimit:4;stroke-dasharray:none"
         inkscape:connector-curvature="0" />
      <path
         d="m 167.36604,305.08271 a 8.1108453,7.3863354 0 1 1 -16.22169,0 8.1108453,7.3863354 0 1 1 16.22169,0 z"
         id="path4017"
         style="fill:#000000;stroke:#000000;stroke-width:7.1018672;stroke-linejoin:round;stroke-miterlimit:4;stroke-dasharray:none"
         inkscape:connector-curvature="0" />
      <path
         d="m 230.81132,305.08271 a 21.97778,18.465843 0 0 1 -43.95556,0 21.97778,18.465843 0 1 1 43.95556,0 z"
         id="path4028"
         style="fill:#ffffff;stroke:#000000;stroke-width:7.1018672;stroke-linejoin:round;stroke-miterlimit:4;stroke-dasharray:none"
         inkscape:connector-curvature="0" />
      <path
         d="m 217.20603,305.08271 a 8.1108453,7.3863354 0 1 1 -16.22169,0 8.1108453,7.3863354 0 1 1 16.22169,0 z"
         id="path4030"
         style="fill:#000000;stroke:#000000;stroke-width:7.1018672;stroke-linejoin:round;stroke-miterlimit:4;stroke-dasharray:none"
         inkscape:connector-curvature="0" />
      <path
         d="m 216.09344,300.97716 a 2.8349474,4.0016544 0 1 1 -5.66989,0 2.8349474,4.0016544 0 1 1 5.66989,0 z"
         id="path4032"
         style="fill:#ffffff;fill-opacity:1;stroke:none;stroke-width:7.10200024;stroke-linejoin:round;stroke-miterlimit:4;stroke-dasharray:none"
         inkscape:connector-curvature="0" />
      <path
         d="m 214.16526,346.59417 c 0,11.63238 -13.52542,49.8363 -30.20987,49.8363 -16.68446,0 -30.20987,-38.20392 -30.20987,-49.8363 0,-11.63237 13.52541,-21.06227 30.20987,-21.06227 16.68445,0 30.20987,9.4299 30.20987,21.06227 z"
         id="path4036"
         style="fill:#000000;fill-opacity:1;stroke:#000000;stroke-width:4.31666517;stroke-linejoin:round;stroke-miterlimit:4"
         inkscape:connector-curvature="0" />
      <path
         d="m 194.41038,319.44161 -10.06403,10e-6 -10.06403,-10e-6 5.03202,5.2826 5.03201,5.2826 5.03201,-5.2826 5.03202,-5.2826 z"
         id="path4045"
         style="fill:#ffffff;fill-opacity:1;stroke:#ffffff;stroke-width:0.6681962;stroke-linejoin:round;stroke-miterlimit:4;stroke-dasharray:none"
         inkscape:connector-curvature="0" />
      <path
         d="M 203.36576,284.64993 250.461,272.09837 c 3.32472,16.47529 -31.55644,15.97472 -47.61852,15.97472 z"
         id="rect4049"
         style="fill:#000000;fill-opacity:1;stroke:#000000;stroke-width:1.63888812;stroke-linejoin:round;stroke-miterlimit:4"
         inkscape:connector-curvature="0" />
      <path
         d="m 164.29625,284.64993 -47.09524,-12.55156 c -3.32472,16.47529 31.55643,15.97472 47.61852,15.97472 z"
         id="path4052"
         style="fill:#000000;fill-opacity:1;stroke:#000000;stroke-width:1.63888812;stroke-linejoin:round;stroke-miterlimit:4"
         inkscape:connector-curvature="0" />
      <path
         d="m 168.65522,394.4819 a 3.20386,2.8264944 0 0 1 -6.40772,0 3.20386,2.8264944 0 1 1 6.40772,0 z"
         id="path4076"
         style="fill:#ffa500;fill-opacity:1;stroke:none"
         inkscape:connector-curvature="0" />
      <path
         d="m 175.06293,394.4819 a 3.2038584,2.826493 0 0 1 -6.40771,0 3.2038584,2.826493 0 1 1 6.40771,0 z"
         id="path4078"
         style="fill:#ffa500;fill-opacity:1;stroke:none"
         inkscape:connector-curvature="0" />
      <path
         d="m 181.47065,394.4819 a 3.20386,2.8264944 0 0 1 -6.40772,0 3.20386,2.8264944 0 1 1 6.40772,0 z"
         id="path4080"
         style="fill:#ffa500;fill-opacity:1;stroke:none"
         inkscape:connector-curvature="0" />
      <path
         d="m 195.56762,394.4819 a 3.2038584,2.826493 0 0 1 -6.40771,0 3.2038584,2.826493 0 1 1 6.40771,0 z"
         id="path4082"
         style="fill:#ffa500;fill-opacity:1;stroke:none"
         inkscape:connector-curvature="0" />
      <path
         d="m 201.97534,394.4819 a 3.20386,2.8264944 0 0 1 -6.40772,0 3.20386,2.8264944 0 1 1 6.40772,0 z"
         id="path4084"
         style="fill:#ffa500;fill-opacity:1;stroke:none"
         inkscape:connector-curvature="0" />
      <path
         d="m 208.38305,394.4819 a 3.20386,2.8264944 0 0 1 -6.40772,0 3.20386,2.8264944 0 1 1 6.40772,0 z"
         id="path4086"
         style="fill:#ffa500;fill-opacity:1;stroke:none"
         inkscape:connector-curvature="0" />
      <path
         d="m 183.7776,311.40986 c -1.69435,2.28631 -2.70055,5.14744 -4.77383,7.27182 -1.26622,0.90331 -3.87119,-0.46773 -4.9782,0.88114 3.09761,3.77087 6.61239,7.45791 10.20247,10.73174 2.09844,-1.12813 3.572,-3.47473 5.38276,-5.08997 1.64465,-1.89538 3.72353,-3.58935 5.04493,-5.66429 -1.19876,-1.143 -3.38279,-0.26208 -4.92106,-0.6644 -2.54761,-0.86591 -3.29988,-4.02893 -4.70397,-6.05697 -0.38083,-0.43162 -0.56353,-1.43813 -1.2531,-1.40907 z"
         id="path3427"
         style="color:#000000;display:inline;overflow:visible;visibility:visible;fill:#ffa500;fill-opacity:1;fill-rule:nonzero;stroke:none;stroke-width:1px;marker:none;enable-background:accumulate"
         inkscape:connector-curvature="0" />
      <path
         inkscape:export-ydpi="90"
         inkscape:export-xdpi="90"
         inkscape:export-filename="/tmp/ico.png"
         inkscape:connector-curvature="0"
         id="path3782"
         d="m 156.27478,326.81132 c -6.4179,-0.75626 -12.74344,-3.73468 -16.71884,-7.87218 -6.53303,-6.7994 -7.63224,-15.96692 -2.87556,-23.98241 0.74984,-1.26356 2.46296,-3.33486 3.80694,-4.60289 1.34397,-1.26803 2.23321,-2.30551 1.97608,-2.30551 -1.08765,0 -6.79149,-0.80167 -9.29332,-1.30617 -11.11189,-2.24074 -16.72684,-6.43077 -16.72684,-12.48204 0,-1.16618 0.15608,-2.27641 0.34685,-2.46718 0.22178,-0.22178 8.41149,1.78517 22.7136,5.56614 12.30172,3.25213 23.91008,6.27201 25.79636,6.71084 1.88629,0.43883 4.81047,1.46793 6.4982,2.2869 5.4087,2.62457 10.67883,8.72892 11.73313,13.59039 l 0.27088,1.24907 0.79374,-2.19208 c 1.62414,-4.48545 4.25634,-7.88513 8.39081,-10.83733 2.79023,-1.99235 5.5753,-3.13493 10.51463,-4.31365 2.12101,-0.50616 13.58906,-3.51391 25.48456,-6.68389 16.89688,-4.50277 21.69332,-5.66093 21.92588,-5.29428 0.16373,0.25812 0.30018,1.37153 0.30322,2.47424 0.016,5.82122 -5.55935,10.07938 -16.05945,12.26526 -2.83043,0.58922 -8.58631,1.43378 -9.77164,1.43378 -0.22236,0 0.91056,1.34115 2.51761,2.98032 3.33917,3.40594 4.99134,6.35874 5.86459,10.48133 1.78593,8.43148 -3.07256,17.57835 -11.70405,22.03469 -8.11843,4.19145 -17.14101,4.40264 -25.17366,0.58925 -4.17437,-1.98173 -4.05918,-1.84663 -2.88597,-3.38479 0.5506,-0.72188 0.89782,-1.41578 0.7716,-1.542 -0.12622,-0.12622 -1.42661,-0.32741 -2.88975,-0.44709 -1.46314,-0.11968 -2.93448,-0.44518 -3.26965,-0.72334 -0.89291,-0.74105 -3.51147,-5.33672 -4.23079,-7.42519 -0.3494,-1.01445 -0.63279,-1.46759 -0.64702,-1.03459 -0.0354,1.0769 -2.65271,6.17426 -4.00686,7.80354 -1.01672,1.22331 -1.29377,1.35379 -2.87442,1.35379 -2.96179,0 -3.53229,0.53474 -2.14543,2.01097 l 0.74588,0.79396 -1.10253,0.78507 c -1.72401,1.22761 -6.11244,3.11325 -8.6925,3.73503 -2.52434,0.60836 -7.33482,0.99378 -9.38628,0.75204 l 0,0 z m 7.90539,-7.36487 c 5.75323,-1.37919 9.96967,-4.51612 12.09297,-8.99687 0.98096,-2.0701 1.12078,-2.74889 1.12078,-5.44133 0,-2.73782 -0.12841,-3.33701 -1.16738,-5.44746 -2.85381,-5.79692 -9.5158,-9.44635 -17.24418,-9.44635 -7.72769,0 -14.3904,3.6495 -17.24362,9.4452 -1.03821,2.10892 -1.16687,2.70928 -1.16737,5.44746 -5.1e-4,2.69439 0.1389,3.37165 1.12021,5.44248 2.09211,4.41494 6.32613,7.60354 11.92187,8.97827 3.70316,0.90977 6.82632,0.91527 10.56672,0.0186 l 0,10e-6 z m 49.773,0.0111 c 4.99692,-1.19796 8.78278,-3.58254 11.00639,-6.93255 6.83571,-10.29845 -1.89135,-22.39364 -16.1577,-22.39364 -13.15121,0 -22.01882,10.58471 -17.16545,20.48932 2.10463,4.29506 6.35892,7.47127 11.79654,8.80715 3.69099,0.90678 6.82484,0.91563 10.52022,0.0297 l 0,10e-6 z"
         style="fill:#ff00ff;fill-opacity:0;stroke:#000000;stroke-width:2.56389904;stroke-linecap:butt;stroke-linejoin:miter;stroke-miterlimit:4;stroke-dasharray:none;stroke-opacity:1" />
      <path
         d="m 166.93772,300.60192 a 2.8349474,4.0016544 0 1 1 -5.66989,0 2.8349474,4.0016544 0 1 1 5.66989,0 z"
         id="path4032-6"
         style="fill:#ffffff;fill-opacity:1;stroke:none;stroke-width:7.10200024;stroke-linejoin:round;stroke-miterlimit:4;stroke-dasharray:none"
         inkscape:connector-curvature="0" />
    </g>
  </g>
</svg>
