<?xml version="1.0" encoding="UTF-8" standalone="no"?>
<!-- Created with Inkscape (http://www.inkscape.org/) -->

<svg
   xmlns:dc="http://purl.org/dc/elements/1.1/"
   xmlns:cc="http://creativecommons.org/ns#"
   xmlns:rdf="http://www.w3.org/1999/02/22-rdf-syntax-ns#"
   xmlns:svg="http://www.w3.org/2000/svg"
   xmlns="http://www.w3.org/2000/svg"
   xmlns:sodipodi="http://sodipodi.sourceforge.net/DTD/sodipodi-0.dtd"
   xmlns:inkscape="http://www.inkscape.org/namespaces/inkscape"
   version="1.1"
   width="1052.3622"
   height="744.09448"
   id="svg2"
   inkscape:version="0.91 r13725"
   sodipodi:docname="404v1.svg"
   inkscape:export-filename="/home/luis/repos/bitergia/website/logo/logo-test.png"
   inkscape:export-xdpi="78.965027"
   inkscape:export-ydpi="78.965027">
  <metadata
     id="metadata3073">
    <rdf:RDF>
      <cc:Work
         rdf:about="">
        <dc:format>image/svg+xml</dc:format>
        <dc:type
           rdf:resource="http://purl.org/dc/dcmitype/StillImage" />
        <dc:title></dc:title>
      </cc:Work>
    </rdf:RDF>
  </metadata>
  <sodipodi:namedview
     pagecolor="#ffffff"
     bordercolor="#666666"
     borderopacity="1"
     objecttolerance="10"
     gridtolerance="10"
     guidetolerance="10"
     inkscape:pageopacity="0"
     inkscape:pageshadow="2"
     inkscape:window-width="1920"
     inkscape:window-height="1024"
     id="namedview3071"
     showgrid="true"
     inkscape:zoom="0.71"
     inkscape:cx="448.27671"
     inkscape:cy="335.62782"
     inkscape:window-x="0"
     inkscape:window-y="27"
     inkscape:window-maximized="1"
     inkscape:current-layer="svg2"
     inkscape:snap-grids="true">
    <inkscape:grid
       type="xygrid"
       id="grid3075" />
  </sodipodi:namedview>
  <defs
     id="defs4" />
  <g
     id="g4927"
     transform="matrix(0.72226565,0,0,0.72226565,-49.298106,192.75169)">
    <path
       id="path4335"
       d="m 557.7459,308.47083 c 3.71876,-1.03013 7.50963,-2.44141 11.43442,-1.93149 3.95054,0.0876 7.61265,2.58562 9.60595,5.92323 0.98892,1.5658 0.65413,3.46124 0.31934,5.17125 2.18387,1.18465 5.21759,1.29796 6.16531,4.02265 -1.93149,0.33994 -3.92479,0.24208 -5.80992,0.7932 -2.16327,0.49961 -2.11691,3.214 -3.1934,4.77464 3.54879,2.4105 7.40147,4.57377 10.0077,8.08651 2.68863,2.36929 6.70613,3.71876 7.99894,7.38087 0.59748,3.04918 1.85423,5.91808 2.39505,8.98271 0.81895,3.45609 1.45763,6.96367 2.57532,10.34249 0.30389,0.90136 0.23178,1.86453 0.25238,2.80195 -0.28843,4.09991 2.09631,7.73626 2.10662,11.81557 -0.45326,0.49446 -0.90652,0.98377 -1.34947,1.47824 0.46871,5.2485 0.89106,10.497 0.97347,15.77126 4.76434,0.3863 9.53899,-0.15452 14.31363,0.0515 3.26036,-0.0258 6.51041,0.7829 9.77077,0.25754 5.81507,-0.7829 11.65075,0.89106 17.45552,0.0206 6.0314,-0.70049 12.07825,0.7726 18.10965,0 6.19107,-0.69534 12.36154,0.71594 18.55261,0.22663 5.39272,-0.33994 10.7906,0.36569 16.17302,-0.18543 4.04325,-0.0464 8.0865,0.28844 12.13491,0.26784 2.75559,0.0103 5.47513,-0.64383 8.24102,-0.42751 3.42003,0.23178 6.86581,0.48416 10.28583,0.0464 4.09476,-0.53567 8.22558,-0.12877 12.34094,-0.10301 4.14111,0.0309 8.28223,-0.59233 12.42849,-0.27814 5.97475,0.46871 11.92889,-0.56657 17.91393,-0.29358 -1.08163,-2.09631 -2.22507,-4.20293 -2.462,-6.59282 -0.0773,-1.74092 -1.74092,-2.84316 -1.85423,-4.55832 -0.21118,-1.76667 -0.36055,-3.57455 -1.19495,-5.1764 0.30389,-2.43625 0.27298,-5.07853 -1.31342,-7.09758 0.24724,-3.13674 0.45841,-6.27863 0.57173,-9.42052 0.0927,-0.84986 -0.47901,-1.54519 -0.83956,-2.25083 -0.17512,-3.13674 1.61215,-6.01595 1.231,-9.13209 1.2001,-1.78727 2.42596,-3.55909 3.69816,-5.30516 1.14345,-1.607 3.26551,-1.87998 4.84161,-2.90496 0.53566,-1.45763 -0.31419,-3.1831 0.4481,-4.61497 1.38553,-2.58048 3.1831,-4.97552 5.43908,-6.86066 3.27581,-2.91011 7.57144,-4.20292 11.29536,-6.39194 1.30311,-2.27144 2.14266,-4.84161 3.93509,-6.8143 2.36929,-2.58047 5.15579,-5.15579 8.74063,-5.76872 3.03373,-0.15967 6.27348,0.8138 8.4007,3.06463 1.15889,1.18465 1.31856,2.90496 1.77697,4.4244 0.52022,2.0036 1.67396,3.74452 2.70409,5.52149 2.4105,0.0206 4.97037,0.21633 6.99457,1.68941 3.74966,1.97785 8.0865,3.23975 10.98631,6.52586 1.66366,2.21478 3.43548,5.1867 1.77183,7.90624 1.09708,1.83362 2.90496,3.02857 4.28018,4.60467 1.67396,4.11021 3.10068,8.33374 4.13081,12.66027 0.51507,2.7556 0.65413,5.56785 1.03013,8.34919 0.28329,1.51944 -0.46871,2.91527 -1.09194,4.23898 0.41721,3.19855 0.49447,6.45375 0.0464,9.6523 -0.37085,2.62168 -1.38552,5.09399 -1.91089,7.67961 -0.43265,0.28843 -0.84985,0.57172 -1.2619,0.86016 -0.41206,2.18387 -0.69534,4.38834 -0.7623,6.61342 8.07106,-0.29874 16.13181,0.3966 24.20286,-0.0103 5.15064,-0.3966 10.29098,0.56142 15.43647,0.067 5.82538,-0.28844 11.66106,0.35024 17.49158,0 4.821,-0.29874 9.642,0.38629 14.463,-0.005 4.63043,-0.376 9.266,0.32964 13.90156,0.0618 4.1051,-0.26783 8.2153,-0.15967 12.3204,-0.0154 3.1006,0.18027 6.1601,-0.56142 9.266,-0.4378 3.4354,-0.10302 6.8606,0.59232 10.2961,0.21632 3.4355,-0.37084 6.8967,-0.30388 10.3528,-0.22147 -0.1854,-0.55112 -0.3194,-1.11254 -0.4069,-1.68426 -0.6284,0.0206 -1.2465,0.0412 -1.8542,0.0721 -0.6851,-2.87406 -0.6027,-5.86143 -1.2774,-8.73549 -0.2884,-1.24646 -0.3348,-2.52897 -0.3606,-3.80633 -0.515,-0.18542 -1.0198,-0.37084 -1.5142,-0.55627 0.067,-2.52381 0.4481,-5.03217 0.4944,-7.55599 -0.5872,0.28329 -1.1022,0.60263 -1.6276,0.95287 -0.6387,-2.97707 -0.082,-6.0108 -0.3863,-9.01362 -0.1906,-1.32371 0.1648,-2.62683 0.5305,-3.88873 0.6799,-2.22508 0.2473,-4.58922 0.6542,-6.86066 0.4738,-2.66288 1.2979,-5.36181 2.977,-7.53023 1.4783,-1.77698 3.8527,-2.28689 5.6966,-3.5591 0.2833,-0.8447 -0.3347,-1.58639 -0.618,-2.32809 -0.2833,-3.38397 2.2044,-6.13441 5.0115,-7.61779 2.6011,-3.25521 7.453,-3.62606 9.5596,-7.38087 2.0345,-3.62605 5.2691,-6.78855 9.3484,-7.94744 3.0132,-0.86531 6.1345,-1.9521 9.32274,-1.41128 2.3951,0.45326 4.8777,1.44733 6.3765,3.47153 1.1692,1.69972 1.3907,3.86298 1.0404,5.85628 -0.2833,1.36492 0.3451,2.65258 0.6902,3.94539 2.0757,1.06619 4.4656,1.10739 6.6237,1.96755 2.2715,0.8241 4.6562,1.37522 6.8452,2.44655 1.6379,0.8035 3.008,2.08601 4.7232,2.7556 3.0646,1.17434 5.6863,3.45093 7.3808,6.25287 1.2929,1.92119 2.8123,3.81663 3.0956,6.20138 0.5872,3.58484 1.5452,7.10788 2.9255,10.47125 -0.7674,-0.8344 -1.576,-1.6276 -2.5238,-2.25083 0.7005,4.17202 0.9941,8.39554 1.7822,12.55211 0.3966,1.79758 -0.9169,3.39427 -0.7211,5.18155 0.1802,2.93071 0.309,5.87173 0.072,8.80244 1.1074,1.45763 2.2302,2.93072 3.0028,4.60468 0.7983,1.47308 0.8292,3.37367 -0.5357,4.52226 -0.015,0.54082 0,1.08163 0.041,1.62245 1.9573,0.47901 3.9969,0.18542 6.0005,0.25238 3.2809,-0.067 6.5309,0.83441 9.8119,0.28844 6.5259,-0.70049 13.0311,0.74169 19.557,0.17512 4.0226,-0.26268 8.0401,0.29874 12.0679,0.16997 0.8911,-3.49213 1.1589,-7.10273 1.777,-10.65153 -0.4017,0.0464 -1.2155,0.13907 -1.6224,0.18543 0.026,-1.13829 0,-2.28174 -0.3194,-3.38397 0.2987,-3.03373 1.4576,-5.88204 2.0448,-8.86426 -0.6747,0.50992 -1.3288,1.03528 -1.9778,1.55035 -0.1133,-4.02265 3.1161,-7.14394 3.2397,-11.12539 0.1751,-2.16327 -0.4172,-4.4038 0.3966,-6.48981 0.8344,-2.23022 1.0147,-4.63557 1.8543,-6.86065 0.5974,-1.71001 0.3966,-3.73937 1.6791,-5.16094 2.7916,-3.51274 6.531,-6.58252 10.9657,-7.65386 0.9374,-1.35976 1.7151,-2.8277 2.3384,-4.36259 2.2353,-1.50914 3.2758,-4.64588 6.1859,-5.06823 3.8475,-0.95802 7.8959,-1.78727 11.1717,-4.17202 2.3384,-1.78212 5.4082,-1.72031 8.0247,-2.86891 3.7291,-1.63275 8.1895,-0.52021 11.4345,1.71517 1.7769,1.15374 2.3641,3.25005 2.668,5.2279 2.4362,1.47308 5.2485,2.11176 7.8547,3.22945 3.6518,4.45531 8.7613,8.13801 10.3476,13.95309 1.2001,4.96522 2.0861,10.01284 3.5437,14.9214 0.9271,3.01828 0.922,6.19108 1.1383,9.30721 0.1236,1.70487 -0.4945,3.33762 -1.0301,4.91887 -2.6063,1.83877 -1.9109,5.29485 -2.2663,8.02469 -0.6078,4.22353 0.1287,8.45221 0.4584,12.66028 8.3131,-0.23178 16.6262,0.15967 24.9394,-0.11847 6.5155,0.26784 13.0363,-0.11331 19.5621,0.0773 4.2905,0.26269 8.5913,-0.11331 12.8972,0 2.9771,-0.0773 5.9645,0.59748 8.9312,0.0103 -1.9006,-4.15142 -3.1831,-8.53977 -4.6046,-12.86631 -0.9117,-2.98222 -0.3709,-6.08805 -0.2833,-9.12693 -0.2988,-0.28329 -0.5821,-0.56657 -0.8499,-0.84986 0.4842,-2.11176 0.582,-4.30593 1.2774,-6.37134 0.4326,-1.40613 1.2979,-2.67318 1.4525,-4.16687 0.2523,-2.07056 1.2207,-4.0484 0.9322,-6.17562 1.2619,-1.90573 2.7505,-3.66725 3.6776,-5.77902 0.9271,-0.3966 2.122,-0.50476 2.771,-1.39067 2.3127,-3.1934 5.3309,-5.93354 8.8952,-7.66415 1.88,-0.93742 3.59,-2.15297 5.1918,-3.51789 1.9109,-1.07134 4.2442,-0.92712 6.2993,-1.65851 0.021,0.27814 0.067,0.83441 0.087,1.11769 1.1229,-0.0257 2.256,-0.0567 3.4046,-0.0927 0.2215,0.45841 0.4584,0.92196 0.7108,1.38037 2.1787,-0.30389 4.275,-1.02498 6.4331,-1.44733 1.1641,-0.19572 1.8594,0.98377 2.7814,1.48854 1.334,-0.54082 1.4267,-2.63713 2.8431,-3.1625 1.6276,0.12877 2.9616,1.30827 4.5944,1.49369 1.8079,0.24208 3.863,-0.12877 5.4082,1.09193 1.4988,1.07649 3.2964,1.56065 5.0785,1.98815 0.031,0.83441 0.031,1.68426 0.2009,2.50836 0.8035,0.89107 1.8748,1.51429 2.6989,2.40535 -0.046,0.99923 -0.2678,1.983 -0.2987,2.98222 0.5614,1.21556 1.7048,2.03451 2.4723,3.12129 2.6989,3.98145 4.7592,8.33889 6.8143,12.67573 0.7314,2.16327 0.7468,4.48106 1.1537,6.71644 0.3966,2.25598 0.5769,4.57892 0.067,6.8349 -0.7881,-0.13907 -1.5607,-0.28844 -2.3178,-0.43781 0.2678,2.28689 0.4121,4.65103 -0.4533,6.84005 -0.8653,3.45608 -3.5075,6.12927 -4.1617,9.66261 0.6336,0.78289 1.2207,1.60185 1.8285,2.42595 4.3059,0.4481 8.6428,0.13907 12.9693,0.46356 4.9858,0.36054 9.9562,-0.74685 14.9317,-0.0927 5.3361,0.64383 10.6361,-0.99923 15.9722,-0.18028 5.1455,0.82926 10.2858,-0.52536 15.4519,-0.21632 4.1257,-0.14937 8.2565,0.71593 12.3667,0.0154 6.3301,-0.19058 12.6757,0.29358 19.0058,-0.22148 8.2153,0.69534 16.4769,-0.30389 24.6871,0.56657 3.7857,-0.12361 7.592,-0.69019 11.388,-0.16482 2.0706,0.33479 4.1618,0.11331 6.2426,-0.0979 4.3987,-0.16482 8.8231,-0.15967 13.2217,0.18542 7.7517,-0.70049 15.5343,0.0206 23.3067,-0.30389 4.3007,-0.18542 8.6376,0.38115 12.9178,-0.23693 0.4944,0.067 1.0249,0.14937 1.5555,0.22663 4.0432,-1.12799 8.1637,0.4172 12.2482,-0.12361 6.1653,-0.78805 12.3976,-0.0876 18.5835,-0.43781 3.76,-0.61807 7.5714,-0.33994 11.3675,-0.32964 l 0,6.78855 c -3.4252,0.28328 -6.8504,0.69018 -10.2859,0.56142 -2.4259,0.036 -4.8313,-0.54597 -7.2366,-0.16482 -4.2596,0.56657 -8.5707,0.29873 -12.8457,0.20087 -3.4612,-0.18542 -6.871,0.64898 -10.3219,0.48416 -3.4406,0.19057 -6.8658,-0.65413 -10.2858,-0.12877 -3.9454,0.29359 -7.9166,0.24208 -11.8568,0.0361 -2.7504,-0.32449 -5.4854,0.23693 -8.2256,0.21118 -4.3111,0.0979 -8.6222,-0.29359 -12.9229,-0.0773 -3.4149,0.15967 -6.8298,0.16482 -10.2344,0.005 -4.4913,-0.25239 -8.9775,0.26783 -13.4637,0.0773 -2.5754,0.036 -5.1301,-0.54597 -7.6899,-0.20088 -4.6253,0.43781 -9.2661,0.11847 -13.8862,-0.11846 -4.6304,0.29358 -9.2917,0.59232 -13.917,0.067 -2.2405,-0.30388 -4.4656,0.19573 -6.6907,0.25239 -5.6708,0.25753 -11.3417,-0.51507 -16.9971,0.0773 -4.8159,0.52021 -9.6369,-0.57688 -14.4424,0.0412 -4.2905,0.50991 -8.6119,0.31934 -12.8972,-0.0721 -4.1154,0.13392 -8.2204,0.66959 -12.3409,0.4069 -5.1919,-0.44295 -10.394,0.0258 -15.5704,0.33994 -0.5872,2.14782 -2.9565,2.44141 -4.5377,3.5694 -2.6269,1.70486 -5.5061,3.00282 -8.0299,4.87251 0.1288,-0.62323 0.2575,-1.25161 0.4275,-1.86969 -0.5666,-0.3966 -0.9838,-1.06618 -1.6534,-1.21555 -3.9711,0.55112 -7.4478,2.80195 -11.3829,3.46123 -1.2207,0.23693 -2.4465,0.3966 -3.6569,0.58202 -1.195,-0.78804 -2.5238,-1.79757 -4.0175,-1.21555 -3.9042,1.20525 -8.308,2.23023 -12.1967,0.43266 -2.3384,-1.1692 -4.8107,-2.08601 -7.3964,-2.49291 0.046,0.67988 0.1391,1.35977 0.2112,2.0448 -2.8483,-0.54082 -4.7592,-2.86891 -7.0873,-4.37289 -1.7821,-1.18465 -3.1882,-2.85346 -4.9703,-4.0175 -3.9094,-0.53052 -7.8754,-0.66444 -11.8053,-0.27299 -4.8107,0.49962 -9.6008,-0.69018 -14.4115,-0.24208 -5.676,0.47901 -11.3469,-0.54596 -17.0177,0.0361 -5.3206,0.44295 -10.6464,-0.61808 -15.9515,0.0515 -3.1007,0.3863 -6.2117,0.10817 -9.3073,-0.10301 -3.0234,-0.21118 -6.0417,0.10301 -9.029,0.48416 -0.34,2.27143 -0.5872,4.64588 -1.9521,6.58252 0.17,-2.06026 0.7056,-4.10506 0.4893,-6.17562 -0.4842,-0.50476 -1.3134,-0.60262 -1.8697,-0.21117 -0.9632,1.94179 -1.3186,4.26988 -2.8998,5.85627 -2.359,1.35462 -5.0219,2.13752 -7.3088,3.62606 -1.2104,1.09193 -2.3538,2.28688 -3.8784,2.93586 -0.7726,1.30826 -1.4319,2.67833 -2.0603,4.05871 -0.4893,-0.15452 -0.9631,-0.30389 -1.4267,-0.45326 -0.4532,1.13314 -0.9322,2.24568 -1.3804,3.37367 -0.5253,-0.0773 -1.0404,-0.14937 -1.54,-0.22148 -0.4739,1.6276 -0.7674,3.47669 -2.2354,4.54287 -0.9116,1.39067 -1.7512,2.85345 -2.1426,4.48621 -0.8756,3.52819 -2.5032,6.84005 -2.9617,10.47125 -0.7571,3.02343 -0.9219,6.74219 -3.8063,8.61187 -0.4893,1.87999 -0.6284,3.90419 -1.5915,5.6245 -0.8241,0.8035 -2.0088,1.06618 -3.008,1.5658 -0.7365,3.82692 -1.674,7.62295 -1.9675,11.52198 -0.6387,3.90934 -1.4834,8.4316 -5.0322,10.78544 -2.6372,1.68941 -5.5164,2.97192 -8.272,4.43986 -2.5032,-0.96317 -4.8673,-2.47746 -7.6796,-2.15812 -0.5202,0.31934 -1.0404,0.61807 -1.5503,0.90651 -3.0749,-2.64228 -6.4022,-5.42878 -7.7002,-9.42052 -1.1383,-4.26988 0.6078,-8.52946 1.8439,-12.56757 0.9477,-3.30156 2.0654,-6.56706 2.632,-9.96134 -0.5923,-0.66443 -1.2104,-1.29281 -1.6688,-2.03965 1.0044,-4.53772 3.2346,-8.78184 3.626,-13.46378 -0.031,-1.55034 -0.4893,-3.05948 -0.4996,-4.60982 -0.067,-2.4105 0.819,-4.69223 1.1332,-7.05638 -0.7469,-1.43703 -0.7778,-3.08008 -0.9477,-4.64588 -2.7917,4.32139 -5.264,8.92606 -6.8349,13.84493 -0.9993,3.04918 -2.5548,5.93869 -2.9771,9.15269 -0.34,5.2794 -2.565,10.16736 -4.5377,14.99866 0.8344,-4.88796 2.6216,-9.55959 3.1573,-14.49905 0.5099,-4.17717 2.0757,-8.12256 2.7659,-12.26368 0.4687,-2.72469 1.4576,-5.37727 1.4885,-8.16892 0.01,-1.90573 0.3297,-3.87843 -0.5305,-5.6657 -0.9065,1.04043 -1.7151,2.15812 -2.5392,3.2552 -0.5975,-2.8689 0.2214,-5.73266 0.5356,-8.58096 0.3348,-2.7453 1.2104,-5.37727 1.813,-8.06591 -2.7658,-0.0515 -5.5214,0.20088 -8.277,0.22663 -4.821,0.13392 -9.6317,-0.55627 -14.4527,-0.16997 -5.3155,0.35539 -10.6052,-0.67988 -15.9154,-0.28844 -4.5995,0.15967 -9.1991,-0.14421 -13.7883,-0.30903 -0.4429,4.75404 0.9941,9.71926 -0.6696,14.31363 -0.7932,2.52896 -3.5127,3.30671 -5.7172,4.13596 -0.3399,3.78057 -0.5871,7.57144 -1.0713,11.33656 -0.2112,1.86453 -0.6953,3.72907 -0.4584,5.61935 0.4944,4.12567 0.8756,8.26678 1.6327,12.35124 0.4894,1.71001 -0.5871,3.32731 -0.3914,5.01672 1.0095,4.63558 1.5967,9.36902 3.0389,13.90673 1.1125,3.34792 1.1331,6.93792 0.5974,10.394 -0.515,2.44655 -2.5959,4.07931 -4.1565,5.88203 -1.9418,2.21993 -4.6871,3.43548 -6.8401,5.40817 -0.4996,-0.23178 -0.9889,-0.46355 -1.4628,-0.69018 -1.7666,0.25238 -3.4869,-0.0412 -5.0733,-0.80865 -2.8689,-1.47309 -4.9601,2.4517 -7.8393,1.65335 -1.5864,-0.40175 -3.2449,-0.65928 -4.7901,0.0206 -3.85274,-2.44141 -8.12264,-4.35745 -11.43444,-7.54569 -2.2766,-3.37367 -1.8285,-7.75172 -1.6122,-11.60955 0.098,-6.8555 0.2112,-13.71616 0.2421,-20.57681 0.072,-2.38475 -1.3495,-4.4038 -2.0809,-6.57737 -1.6327,-4.25958 -3.2758,-8.52431 -4.5068,-12.92296 -0.4687,-1.73061 -1.0765,-3.44063 -2.1426,-4.89826 -0.041,-0.38629 -0.1185,-1.16404 -0.1597,-1.55034 -1.401,-0.0979 -2.6217,0.75714 -3.9763,0.8138 -2.6011,-0.33994 -3.8424,-3.00282 -4.3729,-5.27425 -0.8705,-3.89904 -1.3392,-7.87533 -1.8851,-11.83103 -0.3245,-2.26628 -1.5607,-4.23897 -2.3539,-6.35074 -4.1256,0.54082 -8.3131,0.53052 -12.4594,0.27814 -4.9806,-0.54597 -9.9562,0.57687 -14.942,0.18542 -6.1859,-0.56657 -12.3667,0.48931 -18.5474,-0.0258 -3.96604,-0.39145 -7.92174,0.25753 -11.88773,0.0824 -3.28096,-0.005 -6.54647,-0.54082 -9.82227,-0.21633 -4.61498,0.376 -9.24025,0.0464 -13.83978,-0.29874 -5.15579,0.30389 -10.32703,0.48931 -15.47767,0.0824 -4.80555,0.21118 -9.61625,0.70564 -14.42695,0.32964 -4.12051,-0.36569 -8.22557,0.46871 -12.34093,0.22148 -3.24491,-0.0154 -6.48466,-0.36569 -9.72441,-0.19057 -0.90652,2.34354 -2.3796,4.47075 -2.83801,6.96882 -0.48416,2.24052 -1.00952,4.4862 -1.88513,6.60827 -0.72109,1.92634 -2.89466,3.02857 -3.07493,5.2073 -1.42673,7.11818 -2.64228,14.32393 -5.1558,21.16398 -0.38629,1.13314 -0.97347,2.28173 -0.78804,3.51274 0.79319,6.01595 1.6379,12.02674 2.20962,18.06845 0.20088,2.25598 1.04043,4.40894 1.13314,6.68038 0.10301,4.19777 -0.855,8.86425 -4.36259,11.56319 -2.63713,2.64228 -5.9902,4.32138 -8.88486,6.62887 -2.72469,-0.72624 -5.55754,-1.16404 -8.37494,-1.06618 -2.02935,0.48416 -3.87328,1.54519 -5.90779,2.0036 -1.77182,-1.47824 -4.02265,-2.26628 -5.6451,-3.91964 -1.38552,-1.39582 -3.15219,-2.31264 -4.56347,-3.66726 -2.59077,-2.94101 -3.16764,-7.14909 -2.8586,-10.92966 0.8447,-6.17046 1.05073,-12.41304 1.13829,-18.62986 -2.37445,-8.93122 -4.0278,-18.053 -6.08291,-27.06662 -1.14344,-0.15967 -2.74529,0.0103 -3.19339,-1.33402 -1.89544,-4.3832 -3.10584,-9.08573 -3.42003,-13.85522 -0.16997,-3.08524 -1.83878,-5.76872 -2.87921,-8.60157 -3.61575,-0.0155 -7.2315,0.28328 -10.8421,0.067 -5.85113,-0.48416 -11.70225,0.59748 -17.55338,0.11332 -4.63558,-0.41205 -9.2454,0.53051 -13.87583,0.33994 -3.62605,-0.11846 -7.24695,-0.33479 -10.8627,0.0618 -5.20215,0.49446 -10.40945,-0.44296 -15.60644,0.0618 -3.21915,0.16482 -6.45891,0.25238 -9.67291,-0.0361 -3.41487,-0.33479 -6.8349,0.12362 -10.24977,0.14422 -3.79088,0.14422 -7.56114,-0.60263 -11.35202,-0.32449 -4.08961,0.27298 -8.18952,0.37084 -12.27912,0.0824 -4.14112,-0.3554 -8.26678,0.4172 -12.4079,0.28843 -3.10584,0 -6.20137,-0.47385 -9.30721,-0.30388 -3.92479,0.18542 -7.85473,0.42235 -11.77436,0.0618 -4.64588,-0.4378 -9.29176,0.24724 -13.94279,0.0103 -2.87921,-0.0258 -5.74811,-0.50992 -8.62732,-0.27299 0.0876,1.81303 0.19572,3.62605 0.4172,5.42363 -0.21118,0.15452 -0.62838,0.46355 -0.83955,0.61292 -0.0464,1.78213 -1.1692,3.01313 -2.51867,4.01235 0.16997,8.02985 1.01983,16.0391 1.53489,24.05865 0.32964,2.49806 1.44733,4.80555 2.4105,7.10788 1.92119,4.0175 3.47669,8.18952 5.1661,12.31003 0.94771,2.70924 2.21477,5.50604 1.89028,8.44706 -0.71079,3.57454 -3.02343,6.48465 -5.11459,9.35356 -2.26113,-0.0927 -4.51196,-0.24208 -6.75764,-0.47386 -1.98814,1.67911 -4.27503,2.91526 -6.52586,4.19262 -2.20447,-0.8138 -4.68193,-1.05588 -6.58767,-2.53411 -3.60545,-2.66288 -5.70176,-6.90186 -7.05638,-11.06358 -0.82925,-3.87328 -2.38989,-7.52509 -3.41487,-11.34171 -0.49446,-1.87484 -1.5967,-3.48184 -2.7865,-4.97552 -2.13236,-2.68864 -3.75997,-5.76357 -6.15501,-8.24103 -2.55472,-2.69893 -4.33684,-5.97989 -6.50526,-8.96726 -2.01906,-3.02343 -3.84753,-6.16532 -5.74297,-9.26601 -0.82925,-1.37007 -2.39505,-1.98814 -3.47153,-3.11098 -1.89029,-1.83878 -2.70409,-4.49651 -4.69224,-6.24258 -2.95646,-2.61138 -4.77464,-6.18077 -7.26755,-9.18359 -0.73654,-0.94257 -2.07056,-0.51507 -3.08008,-0.52022 -5.30001,0.58202 -10.63093,0.45841 -15.94124,0.20088 -5.6657,0.52536 -11.35716,0.42235 -17.02802,0.11331 -5.23305,0.4275 -10.48155,0.39145 -15.73005,0.47386 -2.07571,-0.8035 -4.31109,-0.22663 -6.45891,-0.4069 -2.49291,-0.0927 -5.29486,-0.54082 -7.45298,1.00952 -7.6281,0.0979 -15.25619,-0.0412 -22.87914,-0.16482 -4.96007,-0.10301 -9.9768,0.37085 -14.88021,-0.56657 -2.92556,-0.4584 -5.88718,-0.0566 -8.82819,-0.0979 -4.13082,0.16997 -8.23588,-0.68503 -12.36154,-0.24723 -3.1934,0.31934 -6.428,-0.0979 -9.5905,0.15452 -1.25675,1.89544 -2.33839,3.95054 -4.13596,5.41332 -1.80788,-1.11253 -3.89904,-0.51506 -5.70691,0.24723 -3.21915,-0.4687 -6.57222,0.19058 -9.43598,1.71002 -0.31419,0.4584 -0.63868,0.90651 -0.97347,1.34947 -2.4002,0.52021 -4.83645,-0.0412 -7.2418,-0.13392 -4.32139,-0.0258 -8.24102,-2.06541 -12.28943,-3.31186 -1.98815,-0.21633 -3.73421,-1.29281 -5.71721,-1.54005 -3.44578,-0.56657 -6.19622,-2.8483 -9.33296,-4.18232 -1.45248,-0.68503 -3.09039,-0.42235 -4.63043,-0.35539 -4.60982,0.3657 -9.21965,-0.29359 -13.82432,-0.25238 -5.66573,0.45326 -11.34683,0.22663 -17.00223,-0.0618 -5.4855,0.46871 -10.9864,0.376 -16.4666,0.0515 -5.5009,0.53566 -11.0173,0.4378 -16.5233,0.13391 -4.8107,0.28329 -9.642,0.54082 -14.4578,0.15967 -3.5952,-0.37084 -7.1852,0.25754 -10.7855,0.24723 -2.2508,0.0412 -4.4913,-0.17512 -6.7319,-0.31933 -3.7651,-0.28844 -7.5251,0.33994 -11.2902,0.19057 -3.0852,-0.0206 -6.155,-0.42235 -9.2402,-0.44811 -4.1154,0.25238 -8.2514,0.31934 -12.3667,0 -5.3206,-0.72109 -10.6773,0.43781 -16.0134,-0.11331 -4.9703,-0.58717 -9.9459,0.33994 -14.9214,0.0876 -3.4251,-0.14937 -6.8606,-0.49446 -10.2806,-0.0876 -6.0263,0.62838 -12.0629,-0.66958 -18.0788,0.0927 -3.9402,0.4378 -7.88561,-0.12361 -11.82591,-0.21118 -3.0955,-0.0773 -6.1653,0.45326 -9.2557,0.40175 -3.7548,-0.0566 -7.4993,-0.59747 -11.2593,-0.35024 -3.6363,0.22663 -7.2933,0.28844 -10.9296,0.0464 -4.9704,-0.55112 -9.9459,0.4584 -14.926595,0.0566 -3.59,-0.29358 -7.1954,-0.38114 -10.7854,-0.0669 -4.1205,0.23692 -8.2308,-0.19058 -12.341,-0.33995 -2.7556,0.12877 -5.5009,0.3657 -8.2616,0.27814 l 0,-7.45813 c 2.4053,-0.10816 4.8107,-0.0464 7.1954,0.30389 3.6158,0.48931 7.2161,-0.63868 10.8318,-0.20603 1.3701,0.14937 2.7505,0.20088 4.1257,0.0979 3.4561,0.27814 6.9482,0.3966 10.3992,-0.0154 2.018995,-0.25753 4.043195,0.0567 6.062295,0.14937 6.3507,0.36055 12.7117,-0.14422 19.0676,0.0824 5.6657,0.21633 11.3366,-0.33479 17.0023,0 5.8357,0.28844 11.67131,-0.29359 17.50701,-0.0206 3.9557,0.19572 7.9166,0.0515 11.8723,-0.0464 5.0218,-0.11846 10.0489,0.44296 15.0553,-0.13391 5.9541,0.067 11.934,0.46355 17.8882,-0.0412 5.8305,0.34509 11.6713,0.32449 17.507,0.18027 3.9196,-0.17512 7.8032,0.73654 11.7177,0.41205 5.9335,-0.93226 11.8877,0.70564 17.847,0.0618 6.9688,-0.49961 13.9685,0.71079 20.9167,-0.25753 4.821,-0.0979 9.6729,0.75199 14.4888,0.0824 4.7849,-0.70564 9.5905,0.57172 14.3857,0.0258 4.5686,-0.62838 9.1888,-0.24723 13.7728,-0.0566 8.2823,-0.59748 16.57994,0.0876 24.87247,-0.29359 -0.76744,-2.81225 -3.2037,-4.66133 -4.40895,-7.2418 -1.2722,-2.63198 -2.86375,-5.33607 -2.69378,-8.36464 0.11331,-2.39505 0.067,-4.85706 0.93742,-7.13364 0.71593,-1.71516 0.0566,-3.53849 0.0721,-5.30516 0.0309,-2.69894 0.44296,-5.40302 1.32372,-7.95774 0.67473,-2.07056 0.61293,-4.27503 0.97347,-6.40225 1.2104,-2.59592 2.61653,-5.2279 4.90856,-7.03577 0.10301,-0.4069 0.20603,-0.80865 0.31419,-1.21556 2.59592,-1.85938 5.37727,-3.44062 8.34404,-4.63557 2.25598,-1.51944 4.27503,-3.37367 6.59797,-4.8107 3.50244,-2.63713 7.68991,-4.0484 11.48078,-6.18077 2.07056,-1.28251 4.62012,-0.55112 6.84005,-1.32887 1.83363,-0.55111 3.84753,-1.45248 5.72751,-0.52021 2.43111,1.27736 5.25881,0.27298 7.81353,1.03528 1.231,0.28843 2.4517,0.97347 3.75481,0.69533 2.18388,-0.48416 4.08961,-1.74091 6.18077,-2.47745 2.50321,0.25238 4.50166,2.0654 6.72674,3.10068 1.54519,-1.29796 2.94617,-3.19855 5.10944,-3.39942 2.28688,-0.0773 3.90933,1.73061 5.17124,3.39942 0.81895,0.0154 1.66366,-0.13391 2.47746,0.0824 0.90651,0.52022 1.67396,1.27736 2.63198,1.73062 3.44577,-0.53567 6.8555,-2.20448 10.40944,-1.32887 -0.76229,0.91167 -1.74092,1.59155 -2.8174,2.07571 -2.19932,1.04043 -4.28533,2.29719 -6.36619,3.54364 -0.0927,1.07134 -0.16482,2.14782 -0.22148,3.2243 1.40613,0.43266 3.01828,0.58718 4.11536,1.67911 0.87046,0.91682 1.40613,2.08601 2.06541,3.15735 2.70409,-1.59155 5.2588,-3.41488 7.70021,-5.38758 2.17357,-1.29796 4.58922,-2.78649 7.20575,-2.62167 0.15451,3.28096 -1.39068,6.30438 -2.64228,9.2454 -2.47746,5.6451 -6.23228,10.55881 -9.71926,15.60644 -0.20603,2.21993 -0.0773,4.445 -0.0567,6.67008 -0.50991,3.214 -1.96239,6.27348 -4.09476,8.73034 3.56939,3.10068 7.58174,5.6142 11.56319,8.14316 0.73139,0.43266 1.25676,1.10224 1.75637,1.77697 -5.6348,-1.58639 -11.41897,-2.55471 -17.12588,-3.83722 -0.71594,-0.17513 -1.45764,-0.11332 -2.17357,-0.0618 -0.3348,-0.0876 -0.65929,-0.16997 -0.98378,-0.25238 -1.12799,1.81817 -2.44655,3.52303 -3.39427,5.45453 -0.75199,1.72031 -2.71439,2.39504 -3.66726,3.96599 -0.4687,0.7726 -0.80865,1.61215 -1.15889,2.4414 -0.60263,0.66444 -1.19495,1.33402 -1.77182,2.0139 4.29563,0.29874 8.61187,0.92197 12.92296,0.48416 6.02625,-0.50991 12.0731,1.06104 18.06845,-0.0412 11.12023,-0.21118 22.24562,-0.29359 33.371,-0.20088 2.4002,-0.13391 4.57377,1.5555 6.98942,0.99923 2.30234,-0.54082 4.60982,-1.22585 7.01002,-1.07649 4.27503,0.14937 8.57067,0.0309 12.83025,0.53052 4.81585,0.55627 9.6523,-0.21633 14.47845,-0.0103 6.3971,0.4069 12.74784,-0.70049 19.14493,-0.48416 -1.04558,-2.26628 -2.0242,-4.60983 -3.53334,-6.61858 -1.40612,-1.54004 -3.19854,-2.89981 -3.71876,-5.03217 -0.58717,-2.53927 -0.8344,-5.15579 -1.6482,-7.64355 -1.77697,-5.29486 -2.14267,-10.94512 -2.17872,-16.49236 -0.0773,-3.49728 2.09631,-6.38679 3.70331,-9.3072 1.32886,-1.9933 1.35977,-4.54287 2.72469,-6.51041 1.44733,-2.13752 3.03887,-4.18232 4.79524,-6.07776 1.52974,-1.62245 2.4208,-3.70331 3.5591,-5.5936 1.08163,-1.80272 1.00437,-4.24413 2.78649,-5.59874 2.8071,-2.23538 4.28018,-5.62965 6.87611,-8.05561 0.77774,-0.76229 1.54519,-1.54004 2.30233,-2.32294 2.32809,-2.67833 5.60905,-4.32138 8.85911,-5.59874 z"
       inkscape:connector-curvature="0" />
    <g
       transform="matrix(1.2922825,0,0,1.2922825,-33.659627,-116.50052)"
       id="g4907">
      <path
         d="m 180.97133,305.08271 a 21.97778,18.465843 0 0 1 -43.95556,0 21.97778,18.465843 0 1 1 43.95556,0 z"
         id="path4006"
         style="fill:#ffffff;stroke:#000000;stroke-width:7.10200024;stroke-linejoin:round;stroke-miterlimit:4;stroke-dasharray:none"
         inkscape:connector-curvature="0" />
      <path
         d="m 167.36604,305.08271 a 8.1108453,7.3863354 0 1 1 -16.22169,0 8.1108453,7.3863354 0 1 1 16.22169,0 z"
         id="path4017"
         style="fill:#000000;stroke:#000000;stroke-width:7.1018672;stroke-linejoin:round;stroke-miterlimit:4;stroke-dasharray:none"
         inkscape:connector-curvature="0" />
      <path
         d="m 230.81132,305.08271 a 21.97778,18.465843 0 0 1 -43.95556,0 21.97778,18.465843 0 1 1 43.95556,0 z"
         id="path4028"
         style="fill:#ffffff;stroke:#000000;stroke-width:7.1018672;stroke-linejoin:round;stroke-miterlimit:4;stroke-dasharray:none"
         inkscape:connector-curvature="0" />
      <path
         d="m 217.20603,305.08271 a 8.1108453,7.3863354 0 1 1 -16.22169,0 8.1108453,7.3863354 0 1 1 16.22169,0 z"
         id="path4030"
         style="fill:#000000;stroke:#000000;stroke-width:7.1018672;stroke-linejoin:round;stroke-miterlimit:4;stroke-dasharray:none"
         inkscape:connector-curvature="0" />
      <path
         d="m 216.09344,300.97716 a 2.8349474,4.0016544 0 1 1 -5.66989,0 2.8349474,4.0016544 0 1 1 5.66989,0 z"
         id="path4032"
         style="fill:#ffffff;fill-opacity:1;stroke:none;stroke-width:7.10200024;stroke-linejoin:round;stroke-miterlimit:4;stroke-dasharray:none"
         inkscape:connector-curvature="0" />
      <path
         d="m 214.16526,346.59417 c 0,11.63238 -13.52542,49.8363 -30.20987,49.8363 -16.68446,0 -30.20987,-38.20392 -30.20987,-49.8363 0,-11.63237 13.52541,-21.06227 30.20987,-21.06227 16.68445,0 30.20987,9.4299 30.20987,21.06227 z"
         id="path4036"
         style="fill:#000000;fill-opacity:1;stroke:#000000;stroke-width:4.31666517;stroke-linejoin:round;stroke-miterlimit:4"
         inkscape:connector-curvature="0" />
      <path
         d="m 194.41038,319.44161 -10.06403,10e-6 -10.06403,-10e-6 5.03202,5.2826 5.03201,5.2826 5.03201,-5.2826 5.03202,-5.2826 z"
         id="path4045"
         style="fill:#ffffff;fill-opacity:1;stroke:#ffffff;stroke-width:0.6681962;stroke-linejoin:round;stroke-miterlimit:4;stroke-dasharray:none"
         inkscape:connector-curvature="0" />
      <path
         d="M 203.36576,284.64993 250.461,272.09837 c 3.32472,16.47529 -31.55644,15.97472 -47.61852,15.97472 z"
         id="rect4049"
         style="fill:#000000;fill-opacity:1;stroke:#000000;stroke-width:1.63888812;stroke-linejoin:round;stroke-miterlimit:4"
         inkscape:connector-curvature="0" />
      <path
         d="m 164.29625,284.64993 -47.09524,-12.55156 c -3.32472,16.47529 31.55643,15.97472 47.61852,15.97472 z"
         id="path4052"
         style="fill:#000000;fill-opacity:1;stroke:#000000;stroke-width:1.63888812;stroke-linejoin:round;stroke-miterlimit:4"
         inkscape:connector-curvature="0" />
      <path
         d="m 168.65522,394.4819 a 3.20386,2.8264944 0 0 1 -6.40772,0 3.20386,2.8264944 0 1 1 6.40772,0 z"
         id="path4076"
         style="fill:#ffa500;fill-opacity:1;stroke:none"
         inkscape:connector-curvature="0" />
      <path
         d="m 175.06293,394.4819 a 3.2038584,2.826493 0 0 1 -6.40771,0 3.2038584,2.826493 0 1 1 6.40771,0 z"
         id="path4078"
         style="fill:#ffa500;fill-opacity:1;stroke:none"
         inkscape:connector-curvature="0" />
      <path
         d="m 181.47065,394.4819 a 3.20386,2.8264944 0 0 1 -6.40772,0 3.20386,2.8264944 0 1 1 6.40772,0 z"
         id="path4080"
         style="fill:#ffa500;fill-opacity:1;stroke:none"
         inkscape:connector-curvature="0" />
      <path
         d="m 195.56762,394.4819 a 3.2038584,2.826493 0 0 1 -6.40771,0 3.2038584,2.826493 0 1 1 6.40771,0 z"
         id="path4082"
         style="fill:#ffa500;fill-opacity:1;stroke:none"
         inkscape:connector-curvature="0" />
      <path
         d="m 201.97534,394.4819 a 3.20386,2.8264944 0 0 1 -6.40772,0 3.20386,2.8264944 0 1 1 6.40772,0 z"
         id="path4084"
         style="fill:#ffa500;fill-opacity:1;stroke:none"
         inkscape:connector-curvature="0" />
      <path
         d="m 208.38305,394.4819 a 3.20386,2.8264944 0 0 1 -6.40772,0 3.20386,2.8264944 0 1 1 6.40772,0 z"
         id="path4086"
         style="fill:#ffa500;fill-opacity:1;stroke:none"
         inkscape:connector-curvature="0" />
      <path
         d="m 183.7776,311.40986 c -1.69435,2.28631 -2.70055,5.14744 -4.77383,7.27182 -1.26622,0.90331 -3.87119,-0.46773 -4.9782,0.88114 3.09761,3.77087 6.61239,7.45791 10.20247,10.73174 2.09844,-1.12813 3.572,-3.47473 5.38276,-5.08997 1.64465,-1.89538 3.72353,-3.58935 5.04493,-5.66429 -1.19876,-1.143 -3.38279,-0.26208 -4.92106,-0.6644 -2.54761,-0.86591 -3.29988,-4.02893 -4.70397,-6.05697 -0.38083,-0.43162 -0.56353,-1.43813 -1.2531,-1.40907 z"
         id="path3427"
         style="color:#000000;display:inline;overflow:visible;visibility:visible;fill:#ffa500;fill-opacity:1;fill-rule:nonzero;stroke:none;stroke-width:1px;marker:none;enable-background:accumulate"
         inkscape:connector-curvature="0" />
      <path
         inkscape:export-ydpi="90"
         inkscape:export-xdpi="90"
         inkscape:export-filename="/tmp/ico.png"
         inkscape:connector-curvature="0"
         id="path3782"
         d="m 156.27478,326.81132 c -6.4179,-0.75626 -12.74344,-3.73468 -16.71884,-7.87218 -6.53303,-6.7994 -7.63224,-15.96692 -2.87556,-23.98241 0.74984,-1.26356 2.46296,-3.33486 3.80694,-4.60289 1.34397,-1.26803 2.23321,-2.30551 1.97608,-2.30551 -1.08765,0 -6.79149,-0.80167 -9.29332,-1.30617 -11.11189,-2.24074 -16.72684,-6.43077 -16.72684,-12.48204 0,-1.16618 0.15608,-2.27641 0.34685,-2.46718 0.22178,-0.22178 8.41149,1.78517 22.7136,5.56614 12.30172,3.25213 23.91008,6.27201 25.79636,6.71084 1.88629,0.43883 4.81047,1.46793 6.4982,2.2869 5.4087,2.62457 10.67883,8.72892 11.73313,13.59039 l 0.27088,1.24907 0.79374,-2.19208 c 1.62414,-4.48545 4.25634,-7.88513 8.39081,-10.83733 2.79023,-1.99235 5.5753,-3.13493 10.51463,-4.31365 2.12101,-0.50616 13.58906,-3.51391 25.48456,-6.68389 16.89688,-4.50277 21.69332,-5.66093 21.92588,-5.29428 0.16373,0.25812 0.30018,1.37153 0.30322,2.47424 0.016,5.82122 -5.55935,10.07938 -16.05945,12.26526 -2.83043,0.58922 -8.58631,1.43378 -9.77164,1.43378 -0.22236,0 0.91056,1.34115 2.51761,2.98032 3.33917,3.40594 4.99134,6.35874 5.86459,10.48133 1.78593,8.43148 -3.07256,17.57835 -11.70405,22.03469 -8.11843,4.19145 -17.14101,4.40264 -25.17366,0.58925 -4.17437,-1.98173 -4.05918,-1.84663 -2.88597,-3.38479 0.5506,-0.72188 0.89782,-1.41578 0.7716,-1.542 -0.12622,-0.12622 -1.42661,-0.32741 -2.88975,-0.44709 -1.46314,-0.11968 -2.93448,-0.44518 -3.26965,-0.72334 -0.89291,-0.74105 -3.51147,-5.33672 -4.23079,-7.42519 -0.3494,-1.01445 -0.63279,-1.46759 -0.64702,-1.03459 -0.0354,1.0769 -2.65271,6.17426 -4.00686,7.80354 -1.01672,1.22331 -1.29377,1.35379 -2.87442,1.35379 -2.96179,0 -3.53229,0.53474 -2.14543,2.01097 l 0.74588,0.79396 -1.10253,0.78507 c -1.72401,1.22761 -6.11244,3.11325 -8.6925,3.73503 -2.52434,0.60836 -7.33482,0.99378 -9.38628,0.75204 l 0,0 z m 7.90539,-7.36487 c 5.75323,-1.37919 9.96967,-4.51612 12.09297,-8.99687 0.98096,-2.0701 1.12078,-2.74889 1.12078,-5.44133 0,-2.73782 -0.12841,-3.33701 -1.16738,-5.44746 -2.85381,-5.79692 -9.5158,-9.44635 -17.24418,-9.44635 -7.72769,0 -14.3904,3.6495 -17.24362,9.4452 -1.03821,2.10892 -1.16687,2.70928 -1.16737,5.44746 -5.1e-4,2.69439 0.1389,3.37165 1.12021,5.44248 2.09211,4.41494 6.32613,7.60354 11.92187,8.97827 3.70316,0.90977 6.82632,0.91527 10.56672,0.0186 l 0,10e-6 z m 49.773,0.0111 c 4.99692,-1.19796 8.78278,-3.58254 11.00639,-6.93255 6.83571,-10.29845 -1.89135,-22.39364 -16.1577,-22.39364 -13.15121,0 -22.01882,10.58471 -17.16545,20.48932 2.10463,4.29506 6.35892,7.47127 11.79654,8.80715 3.69099,0.90678 6.82484,0.91563 10.52022,0.0297 l 0,10e-6 z"
         style="fill:#ff00ff;fill-opacity:0;stroke:#000000;stroke-width:2.56389904;stroke-linecap:butt;stroke-linejoin:miter;stroke-miterlimit:4;stroke-dasharray:none;stroke-opacity:1" />
      <path
         d="m 166.93772,300.60192 a 2.8349474,4.0016544 0 1 1 -5.66989,0 2.8349474,4.0016544 0 1 1 5.66989,0 z"
         id="path4032-6"
         style="fill:#ffffff;fill-opacity:1;stroke:none;stroke-width:7.10200024;stroke-linejoin:round;stroke-miterlimit:4;stroke-dasharray:none"
         inkscape:connector-curvature="0" />
    </g>
  </g>
  <text
     xml:space="preserve"
     style="font-style:normal;font-variant:normal;font-weight:bold;font-stretch:normal;font-size:62.5px;line-height:125%;font-family:Impact;-inkscape-font-specification:'Impact Bold';letter-spacing:0px;word-spacing:0px;fill:#000000;fill-opacity:1;stroke:none;stroke-width:1px;stroke-linecap:butt;stroke-linejoin:miter;stroke-opacity:1"
     x="216.67569"
     y="185.19656"
     id="text4949"
     sodipodi:linespacing="125%"><tspan
       sodipodi:role="line"
       id="tspan4951"
       x="216.67569"
       y="185.19656">Oupss, panel not found ..</tspan></text>
  <text
     xml:space="preserve"
     style="font-style:normal;font-variant:normal;font-weight:normal;font-stretch:normal;font-size:14.31629944px;line-height:125%;font-family:'Droid Sans';-inkscape-font-specification:'Droid Sans';letter-spacing:0px;word-spacing:0px;fill:#000000;fill-opacity:1;stroke:none;stroke-width:1px;stroke-linecap:butt;stroke-linejoin:miter;stroke-opacity:1"
     x="607.61945"
     y="730.35181"
     id="text4967"
     sodipodi:linespacing="125%"><tspan
       sodipodi:role="line"
       id="tspan4969"
       x="607.61945"
       y="730.35181"
       style="font-style:normal;font-variant:normal;font-weight:normal;font-stretch:normal;font-family:'Droid Sans';-inkscape-font-specification:'Droid Sans'">derivative work from Bitergia based on images from openclipart.org</tspan></text>
</svg>
