<?xml version="1.0" encoding="UTF-8" standalone="no"?>
<!-- Created with Inkscape (http://www.inkscape.org/) -->

<svg
   xmlns:dc="http://purl.org/dc/elements/1.1/"
   xmlns:cc="http://creativecommons.org/ns#"
   xmlns:rdf="http://www.w3.org/1999/02/22-rdf-syntax-ns#"
   xmlns:svg="http://www.w3.org/2000/svg"
   xmlns="http://www.w3.org/2000/svg"
   xmlns:sodipodi="http://sodipodi.sourceforge.net/DTD/sodipodi-0.dtd"
   xmlns:inkscape="http://www.inkscape.org/namespaces/inkscape"
   version="1.1"
   width="1052.3622"
   height="744.09448"
   id="svg2"
   inkscape:version="0.91 r13725"
   sodipodi:docname="404v1.svg"
   inkscape:export-filename="/home/luis/Documentos/logo/404v1.png"
   inkscape:export-xdpi="96.21212"
   inkscape:export-ydpi="96.21212">
  <metadata
     id="metadata3073">
    <rdf:RDF>
      <cc:Work
         rdf:about="">
        <dc:format>image/svg+xml</dc:format>
        <dc:type
           rdf:resource="http://purl.org/dc/dcmitype/StillImage" />
        <dc:title></dc:title>
      </cc:Work>
    </rdf:RDF>
  </metadata>
  <sodipodi:namedview
     pagecolor="#ffffff"
     bordercolor="#666666"
     borderopacity="1"
     objecttolerance="10"
     gridtolerance="10"
     guidetolerance="10"
     inkscape:pageopacity="0"
     inkscape:pageshadow="2"
     inkscape:window-width="1920"
     inkscape:window-height="1024"
     id="namedview3071"
     showgrid="true"
     inkscape:zoom="0.71"
     inkscape:cx="537.83221"
     inkscape:cy="335.62782"
     inkscape:window-x="0"
     inkscape:window-y="27"
     inkscape:window-maximized="1"
     inkscape:current-layer="svg2"
     inkscape:snap-grids="true">
    <inkscape:grid
       type="xygrid"
       id="grid3075" />
  </sodipodi:namedview>
  <defs
     id="defs4">
    <clipPath
       id="p.0">
      <path
         style="clip-rule:nonzero"
         inkscape:connector-curvature="0"
         d="M 0,0 417,0 417,476 0,476 0,0 Z"
         id="path6435" />
    </clipPath>
    <clipPath
       id="p.0-4">
      <path
         style="clip-rule:nonzero"
         inkscape:connector-curvature="0"
         d="M 0,0 417,0 417,476 0,476 0,0 Z"
         id="path6435-9" />
    </clipPath>
    <clipPath
       id="p.0-9">
      <path
         style="clip-rule:nonzero"
         inkscape:connector-curvature="0"
         d="M 0,0 417,0 417,476 0,476 0,0 Z"
         id="path6435-4" />
    </clipPath>
  </defs>
  <text
     xml:space="preserve"
     style="font-style:normal;font-variant:normal;font-weight:bold;font-stretch:normal;font-size:62.5px;line-height:125%;font-family:Impact;-inkscape-font-specification:'Impact Bold';letter-spacing:0px;word-spacing:0px;fill:#000000;fill-opacity:1;stroke:none;stroke-width:1px;stroke-linecap:butt;stroke-linejoin:miter;stroke-opacity:1"
     x="39.210903"
     y="96.464172"
     id="text4949"
     sodipodi:linespacing="125%"><tspan
       sodipodi:role="line"
       id="tspan4951"
       x="39.210903"
       y="96.464172">This is not the page </tspan><tspan
       sodipodi:role="line"
       x="39.210903"
       y="174.58917"
       id="tspan5791">you are looking for </tspan><tspan
       sodipodi:role="line"
       x="39.210903"
       y="252.71417"
       id="tspan7355">but we found this </tspan><tspan
       sodipodi:role="line"
       x="39.210903"
       y="330.83917"
       id="tspan5793">lovely monster</tspan></text>
  <text
     xml:space="preserve"
     style="font-style:normal;font-variant:normal;font-weight:normal;font-stretch:normal;font-size:14.31629944px;line-height:125%;font-family:'Droid Sans';-inkscape-font-specification:'Droid Sans';letter-spacing:0px;word-spacing:0px;fill:#000000;fill-opacity:1;stroke:none;stroke-width:1px;stroke-linecap:butt;stroke-linejoin:miter;stroke-opacity:1"
     x="607.61945"
     y="730.35181"
     id="text4967"
     sodipodi:linespacing="125%"><tspan
       sodipodi:role="line"
       id="tspan4969"
       x="607.61945"
       y="730.35181"
       style="font-style:normal;font-variant:normal;font-weight:normal;font-stretch:normal;font-family:'Droid Sans';-inkscape-font-specification:'Droid Sans'">derivative work from Bitergia based on images from openclipart.org</tspan></text>
  <path
     style="fill:#000000;fill-opacity:0;fill-rule:nonzero"
     inkscape:connector-curvature="0"
     id="path6439"
     d="m 960.08588,173.53733 417.72442,0 0,476.4252 -417.72442,0 z" />
  <g
     id="g7337"
     transform="translate(-422.53521,4.2253517)">
    <path
       d="m 1158.2145,220.38686 c 32.0149,-5.32012 70.748,-6.93862 100.748,8.32797 30,15.26659 62.6851,51.81322 79.252,83.27158 16.5669,31.45837 23.0599,69.39389 20.1496,105.47861 -2.9103,36.0847 -14.3281,84.89097 -37.6116,111.02968 -23.2834,26.1387 -64.4772,36.31839 -102.0892,45.80249 -37.612,9.4841 -88.4335,20.58627 -123.5827,11.10217 -35.1491,-9.48413 -67.6111,-38.62976 -87.3123,-68.0068 -19.70122,-29.37705 -30.22353,-77.25949 -30.89501,-108.25551 -0.67148,-30.99601 11.86614,-52.97026 26.86611,-77.72051 15,-24.75024 37.388,-52.27603 63.1339,-70.78098 25.7458,-18.50494 59.3263,-34.92858 91.3412,-40.2487 z"
       id="path6441"
       inkscape:connector-curvature="0"
       style="fill:#ff59a1;fill-rule:nonzero" />
    <path
       d="m 1117.9153,357.28011 0,0 c 0,-36.35512 30.3741,-65.82677 67.8425,-65.82677 l 0,0 c 17.993,0 35.249,6.9353 47.9719,19.28022 12.7229,12.34491 19.8706,29.08821 19.8706,46.54655 l 0,0 c 0,36.35512 -30.3741,65.82678 -67.8425,65.82678 l 0,0 c -37.4684,0 -67.8425,-29.47166 -67.8425,-65.82678 z"
       id="path6443"
       inkscape:connector-curvature="0"
       style="fill:#2ff3c1;fill-rule:nonzero" />
    <path
       d="m 1144.7342,357.28011 0,0 c 0,-23.65692 18.3669,-42.83464 41.0236,-42.83464 l 0,0 c 10.8801,0 21.3146,4.51292 29.0081,12.54597 7.6934,8.03306 12.0155,18.92821 12.0155,30.28867 l 0,0 c 0,23.65692 -18.3669,42.83466 -41.0236,42.83466 l 0,0 c -22.6567,0 -41.0236,-19.17774 -41.0236,-42.83466 z"
       id="path6445"
       inkscape:connector-curvature="0"
       style="fill:#000000;fill-rule:nonzero" />
    <path
       d="m 1185.0806,342.50321 0,0 c 0,-6.6796 5.711,-12.0945 12.7559,-12.0945 l 0,0 c 3.3831,0 6.6276,1.27425 9.0198,3.54241 2.3922,2.26815 3.7361,5.34443 3.7361,8.55209 l 0,0 c 0,6.6796 -5.711,12.09448 -12.7559,12.09448 l 0,0 c -7.0449,0 -12.7559,-5.41488 -12.7559,-12.09448 z"
       id="path6447"
       inkscape:connector-curvature="0"
       style="fill:#ffffff;fill-rule:nonzero" />
    <path
       d="m 1207.1081,477.98953 c -0.2498,2.32184 1.6131,10.98584 -1.499,13.931 -3.1122,2.94519 -12.9075,4.49939 -17.174,3.74008 -4.2664,-0.75928 -6.8497,-5.61545 -8.4248,-8.29587 -1.5751,-2.68042 -0.8547,-6.48886 -1.0257,-7.78662"
       id="path6449"
       inkscape:connector-curvature="0"
       style="fill:#ffffff;fill-rule:nonzero" />
    <path
       d="m 1236.1081,474.98953 c -0.2498,2.32184 1.6132,10.98584 -1.499,13.931 -3.1122,2.94519 -12.9075,4.49939 -17.1739,3.74008 -4.2665,-0.75928 -6.8498,-5.61545 -8.4249,-8.29587 -1.5751,-2.68042 -0.8547,-6.48886 -1.0257,-7.78662"
       id="path6451"
       inkscape:connector-curvature="0"
       style="fill:#ffffff;fill-rule:nonzero" />
    <path
       d="m 1152.3201,476.20487 c -0.2498,2.32184 -3.8656,10.61142 -1.499,13.931 2.3666,3.31958 11.4426,6.16336 15.6986,5.98648 4.256,-0.17691 7.7602,-4.61706 9.8376,-7.04788 2.0774,-2.43082 2.1891,-6.28085 2.6269,-7.53702"
       id="path6453"
       inkscape:connector-curvature="0"
       style="fill:#ffffff;fill-rule:nonzero" />
    <path
       d="m 1115.225,453.9914 c 8.7314,4.25372 32.9107,22.16403 52.3884,25.52231 19.4777,3.35827 48.5823,-2.90988 64.4777,-5.37271 15.8955,-2.4628 22.8355,-4.70255 30.895,-9.40421 8.0595,-4.70166 14.5517,-15.67148 17.462,-18.80575"
       id="path6455"
       inkscape:connector-curvature="0"
       style="fill:#000000;fill-opacity:0;fill-rule:nonzero" />
    <path
       d="m 1115.225,451.1745 c 8.7314,4.25372 32.9107,22.16403 52.3884,25.52231 19.4777,3.35827 48.5823,-2.90988 64.4777,-5.37271 15.8955,-2.4628 22.8355,-4.70255 30.895,-9.40421 8.0595,-4.70166 14.5517,-15.67148 17.462,-18.80575"
       id="path6457"
       inkscape:connector-curvature="0"
       style="fill:none;fill-rule:nonzero;stroke:#c9467e;stroke-width:4;stroke-linecap:butt;stroke-linejoin:round" />
    <path
       d="m 1018.8582,323.15446 c 9.5,-5.83333 23.6667,-30.16666 44,-45 20.3333,-14.83334 49.3333,-36.33334 78,-44 28.6667,-7.66667 71.3333,-4.33333 94,-2 22.6667,2.33333 32,16.66666 42,16 10,-0.66666 16.6667,-13.83333 18,-20 1.3333,-6.16667 -4,-13.16667 -10,-17 -6,-3.83333 -17.8333,-9.16667 -26,-6 -8.1667,3.16667 -20.1667,24.16667 -23,25 -2.8333,0.83333 6.1667,-14.83333 6,-20 -0.1667,-5.16667 -2.6667,-7.5 -7,-11 -4.3333,-3.5 -13,-10.16667 -19,-10 -6,0.16667 -12.8333,4.33333 -17,11 -4.1667,6.66667 -6.5,27.33333 -8,29 -1.5,1.66667 2.8333,-13.33333 -1,-19 -3.8333,-5.66667 -15,-12.66667 -22,-15 -7,-2.33333 -15,-0.83333 -20,1 -5,1.83333 -7.3333,4.16667 -10,10 -2.6667,5.83333 -3.6667,23.16667 -6,25 -2.3333,1.83333 -3,-10.83333 -8,-14 -5,-3.16667 -15.1667,-5.33333 -22,-5 -6.8333,0.33333 -15.6667,1.5 -19,7 -3.3333,5.5 -2.6667,19.83334 -1,26 1.6667,6.16666 13.8333,11.33334 11,11 -2.8333,-0.33334 -21,-10.16666 -28,-13 -7,-2.83334 -8.8333,-5.16666 -14,-4 -5.1667,1.16666 -13.1667,5.5 -17,11 -3.8333,5.5 -7.3333,14.66666 -6,22 1.3333,7.33334 14.5,20.66666 14,22 -0.5,1.33334 -11.1667,-11.33334 -17,-14 -5.8333,-2.66666 -13.5,-4.5 -18,-2 -4.5,2.5 -8.83334,11.16666 -9.00001,17 -0.16666,5.83334 4.50001,13.33333 8.00001,18 3.5,4.66667 3.5,15.83333 13,10 z"
       id="path6459"
       inkscape:connector-curvature="0"
       style="fill:#ff59a1;fill-rule:nonzero" />
    <path
       d="m 1042.8162,547.31385 c -4.1897,15.77087 -11.7742,51.0958 -7.5402,66.21249 4.2341,15.1167 19.1088,22.79886 32.9444,24.48771 13.8356,1.68884 42.5289,2.94271 50.0691,-14.35459 7.5402,-17.29733 4.8179,-71.96957 -4.828,-89.42932 -9.6458,-17.45972 -41.2728,-17.5097 -53.047,-15.3291 -11.7742,2.18063 -13.4085,12.64194 -17.5983,28.41281 z"
       id="path6461"
       inkscape:connector-curvature="0"
       style="fill:#ff59a1;fill-rule:nonzero" />
    <path
       d="m 1295.8074,523.61646 c 6.6323,14.44476 19.8702,47.1947 18.8138,62.85229 -1.0564,15.6576 -13.0264,26.40909 -25.1522,31.0933 -12.1258,4.6842 -37.682,12.20794 -47.6026,-2.9881 -9.9205,-15.19605 -17.4141,-69.05914 -11.9206,-88.18811 5.4935,-19.12897 33.9049,-26.12412 44.8818,-26.58569 10.9769,-0.46155 14.3476,9.37155 20.9798,23.81631 z"
       id="path6463"
       inkscape:connector-curvature="0"
       style="fill:#ff59a1;fill-rule:nonzero" />
  </g>
</svg>
